<?xml version="1.0" encoding="utf-8"?>
<!-- Generator: Adobe Illustrator 16.0.0, SVG Export Plug-In . SVG Version: 6.00 Build 0)  -->
<!DOCTYPE svg PUBLIC "-//W3C//DTD SVG 1.1//EN" "http://www.w3.org/Graphics/SVG/1.1/DTD/svg11.dtd">
<svg version="1.1" xmlns="http://www.w3.org/2000/svg" xmlns:xlink="http://www.w3.org/1999/xlink" x="0px" y="0px" width="1920px"
	 height="1080px" viewBox="0 0 1920 1080" enable-background="new 0 0 1920 1080" xml:space="preserve">
<g id="Layer_2">
	<radialGradient id="SVGID_1_" cx="961" cy="540" r="779.4617" gradientUnits="userSpaceOnUse">
		<stop  offset="0.0011" style="stop-color:#FF7100"/>
		<stop  offset="0.092" style="stop-color:#FB6400"/>
		<stop  offset="0.3086" style="stop-color:#F34900"/>
		<stop  offset="0.5302" style="stop-color:#ED3600"/>
		<stop  offset="0.7577" style="stop-color:#EA2B00"/>
		<stop  offset="1" style="stop-color:#E92700"/>
	</radialGradient>
	<rect fill="url(#SVGID_1_)" width="1922" height="1080"/>
</g>
<g id="Layer_1">
	<g>
		<defs>
			<rect id="SVGID_3_" width="1922" height="1080"/>
		</defs>
		<clipPath id="SVGID_2_">
			<use xlink:href="#SVGID_3_"  overflow="visible"/>
		</clipPath>
		<g clip-path="url(#SVGID_2_)">
			<path fill-rule="evenodd" clip-rule="evenodd" d="M1924.38,1007.811c-7.685,1.343-15.371,2.681-23.054,4.031
				c-19.752,3.468-38.037-0.989-54.979-10.989c-17.78-10.496-35.369-21.342-52.685-32.586c-4.827-3.135-9.254-7.665-12.362-12.517
				c-7.634-11.914-4.59-26.469,6.237-35.412c12.507-10.331,24.911-20.789,37.261-31.308c14.679-12.506,31.548-13.919,47.669-3.815
				c11.648,7.302,12.821,17.64,0.92,24.131c-10.1,5.507-22.012,8.375-33.475,10.519c-12.65,2.365-22.373,7.38-27.854,19.389
				c-3.18,6.968-1.547,11.728,6.222,13.203c7.97,1.513,16.333,1.548,23.989,3.942c8.729,2.73,18.591,5.523,24.932,11.5
				c17.127,16.146,35.215,21.897,57.179,11.713C1924.38,989.012,1924.38,998.411,1924.38,1007.811z"/>
			<path fill-rule="evenodd" clip-rule="evenodd" d="M1924.38,791.624c-6.383,1.417-12.704,3.332-19.164,4.153
				c-16.164,2.05-28.386,9.984-38.572,22.559c-16.639,20.539-49.507,25.876-71.924,11.816c-3.603-2.26-8.216-8.686-7.24-11.181
				c1.669-4.265,7.018-9.01,11.495-9.821c7.49-1.356,15.512,0.469,23.312,0.521c15.843,0.107,24.244-4.709,27.699-19.788
				c3.587-15.652,13.105-22.356,27.483-25.226c5.17-1.032,10.678-2.22,15.005-4.959c2.754-1.744,4.958-6.512,4.861-9.848
				c-0.066-2.23-4.314-4.942-7.219-6.354c-5.554-2.699-11.938-3.904-17.071-7.159c-2.812-1.784-5.197-6.554-5.041-9.849
				c0.096-2.007,5.181-4.828,8.384-5.461c16.401-3.234,32.369-0.585,47.992,4.802C1924.38,747.76,1924.38,769.692,1924.38,791.624z"
				/>
			<path fill-rule="evenodd" clip-rule="evenodd" d="M-0.62,1005.931c15.183-12.528,32.69-16.315,51.774-13.221
				c8.602,1.395,14.959,5.458,16.478,15.356c0.381,2.483,4.537,5.218,7.521,6.338c22.847,8.573,33.073,22.728,32.818,46.905
				c-0.068,6.475,0.064,13.998-8.167,16.057c-7.847,1.962-13.251-2.375-16.616-9.165c-3.329-6.718-6.434-13.555-9.396-20.444
				c-5.24-12.188-14.475-20.47-26.343-25.396c-4.873-2.022-11.705-3.381-16.12-1.487c-6.369,2.731-13.962,7.769-16.043,13.603
				c-1.497,4.197,3.86,12.758,8.433,16.8c9.557,8.448,20.851,14.895,30.967,22.761c5.446,4.233,13.181,8.613,9.692,17.292
				c-3.339,8.31-11.72,9.812-19.735,10.075c-11.077,0.363-18.611-5.033-22.964-17.133c-4.293-11.932-10.265-22.101-22.298-27.584
				C-0.62,1039.769-0.62,1022.85-0.62,1005.931z"/>
			<path fill-rule="evenodd" clip-rule="evenodd" d="M-0.62,67.869c8.287,0.879,16.629,1.413,24.848,2.72
				c11.645,1.854,23.215,4.195,34.786,6.486c6.991,1.383,14.227,2.277,20.802,4.816c8.043,3.106,10.992,10.175,11.631,18.722
				c0.617,8.232-4.538,11.263-10.375,14.833c-16.164,9.885-31.141,8.742-45.81-3.138C24.664,103.724,14.63,93.695-0.62,94.188
				C-0.62,85.415-0.62,76.642-0.62,67.869z"/>
			<path fill-rule="evenodd" clip-rule="evenodd" d="M-0.62,848.021c16.521-1.542,25.571,2.746,30.807,16.647
				c2.541,6.749,6.456,8.998,12.859,9.73c9.15,1.047,15.878,4.803,17.136,15.328c1.646,13.781-0.841,18.353-14.407,21.147
				c-9.855,2.029-17.241,6.862-22.38,15.452c-5.403,9.032-13.364,13.809-24.015,13.809c0-10.026,0-20.052,0-30.078
				c5.968-3.239,12.687-5.62,17.674-9.981c4.175-3.65,9.988-11.496,8.617-14.163c-2.882-5.606-9.617-9.739-15.573-13.021
				c-2.537-1.398-7.084,0.854-10.718,1.448C-0.62,865.566-0.62,856.793-0.62,848.021z"/>
			<path fill-rule="evenodd" clip-rule="evenodd" d="M1924.38,464.524c-7.025-6.024-13.785-12.4-21.148-17.98
				c-8.438-6.395-18.123-11.282-25.99-18.265c-12.398-11.007-13.377-29.349-3.485-42.544c4.885-6.52,11.169-10.149,19.515-7.727
				c8.317,2.414,11.883,8.672,12.25,16.919c0.222,4.992-0.188,10.015,0.075,15.002c0.687,13.067,5.082,23.796,18.784,28.275
				C1924.38,446.979,1924.38,455.752,1924.38,464.524z"/>
			<path fill-rule="evenodd" clip-rule="evenodd" d="M-0.62,654.393c14.717-1.803,29.489-5.389,44.138-4.944
				c17.192,0.521,23.908,12.865,16.029,26.81c-2.379,4.21-8.073,8.582-12.691,9.126c-15.718,1.852-31.635,2.029-47.475,2.846
				C-0.62,676.951-0.62,665.672-0.62,654.393z"/>
			<path fill-rule="evenodd" clip-rule="evenodd" d="M-0.62,577.317c23.522-6.846,33.829-0.298,37.792,24.099
				c0.998,6.14,1.765,12.317,2.694,18.871c3.409,0.756,6.713,1.49,10.653,2.365c-1.786,3.526-2.832,7.664-5.445,10.159
				c-2.558,2.445-6.777,4.601-10.154,4.445c-7.514-0.349-19.024-11.566-19.832-19.006c-1.07-9.864-6.242-13.708-15.709-12.733
				C-0.62,596.116-0.62,586.717-0.62,577.317z"/>
			<path fill-rule="evenodd" clip-rule="evenodd" d="M-0.62-37.404c11.719-0.241,23.521-1.432,35.132-0.429
				c9.688,0.836,15.915,9.528,15.346,18.001C49.097-8.455,42.785-1.438,32.025-0.817C21.16-0.19,10.263-0.121-0.62,0.193
				C-0.62-12.339-0.62-24.872-0.62-37.404z"/>
			<path fill-rule="evenodd" clip-rule="evenodd" d="M1924.38,332.933c-12.604-5.512-20.7-16.229-24.111-28.238
				c-2.138-7.522,1.571-17.647,5.022-25.576c4.229-9.711,9.285-17.968,1.813-28.683c-1.692-2.428,1.56-9.973,4.517-13.504
				c2.965-3.542,8.404-5.014,12.759-7.393C1924.38,264.004,1924.38,298.468,1924.38,332.933z"/>
			<path fill-rule="evenodd" clip-rule="evenodd" d="M-0.62,413.768c7.986-0.288,16.152-1.775,23.918-0.603
				c14.097,2.128,24.912,18.746,22.625,32.756c-1.782,10.913-7.997,16.941-20.364,19.186c-3.878-13.148-9.462-25.1-26.179-25.021
				C-0.62,431.313-0.62,422.54-0.62,413.768z"/>
			<path fill-rule="evenodd" clip-rule="evenodd" d="M1924.38,114.866c-11.006-6.132-12.314-8.913-6.881-19.888
				c3.778-7.629,2.53-13.548-3.049-19.428c-9.005-9.49-18.231-18.83-26.466-28.963c-2.942-3.622-3.276-9.364-4.802-14.139
				c4.562-1.399,9.041-3.514,13.702-4.044c9.19-1.046,16.174,3.377,21.505,10.652c1.99,2.716,3.993,5.423,5.99,8.134
				C1924.38,69.749,1924.38,92.308,1924.38,114.866z"/>
			<path fill-rule="evenodd" clip-rule="evenodd" d="M-0.62,214.5c8.458,1.514,17.406,1.77,25.255,4.84
				c11.245,4.399,14.781,13.699,12.414,24.838c-12.803,1.414-25.236,2.787-37.669,4.159C-0.62,237.059-0.62,225.779-0.62,214.5z"/>
			<path fill-rule="evenodd" clip-rule="evenodd" d="M1924.38,569.798c-8.979-1.719-13.651-7.936-14.113-16.275
				c-0.604-10.893,3.746-19.91,14.113-25.082C1924.38,542.227,1924.38,556.012,1924.38,569.798z"/>
			<path fill-rule="evenodd" clip-rule="evenodd" d="M1924.38,934.495c-6.675-3.751-6.794-9.775-5.375-16.142
				c1.81-8.119,2.755-15.033-8.362-17.714c-3.703-0.893-6.317-6.302-9.429-9.647c0.601-1.149,1.198-2.297,1.797-3.447
				c7.123,0.61,14.246,1.222,21.369,1.832C1924.38,904.417,1924.38,919.456,1924.38,934.495z"/>
			<path fill-rule="evenodd" clip-rule="evenodd" d="M1924.38,690.11c-5.131-2.739-12.614-4.348-14.646-8.577
				c-1.613-3.357,2.831-10.31,5.76-14.92c1.843-2.904,5.851-4.435,8.887-6.581C1924.38,670.059,1924.38,680.084,1924.38,690.11z"/>
			<path fill-rule="evenodd" clip-rule="evenodd" d="M1138.836,808.719c8.962,2.378,18.286,3.875,26.787,7.373
				c9.404,3.87,12.413,11.21,10.252,19.67c-2.074,8.123-9.931,15.103-18.268,14.785c-7.712-0.293-15.782-0.801-22.964-3.308
				c-14.827-5.176-30.406-0.269-32.507,19.397c-1.514,14.173-11.119,22.58-23.442,28.204c-3.975,1.815-8.312,2.898-12.138,4.959
				c-8.26,4.451-11.341,12.426-8.811,21.463c3.356,11.981,10.822,21.126,20.525,28.386c7.525,5.63,15.902,4.063,24.53-3.895
				c14.185-13.084,21.767-30.188,29.576-47.367c4.035-8.878,10.043-17.062,16.304-24.612c2.119-2.557,8.802-4.1,11.465-2.621
				c2.442,1.355,3.99,7.897,3.007,11.312c-13.511,46.936-39.72,81.528-87.23,90.598c-20.161,3.849-30.473-1.178-39.643-19.655
				c-9.322-18.787-13.515-38.887-14.136-59.791c-0.33-11.101,4.077-20.192,14.081-24.543c19.749-8.59,34.806-22.748,49.662-37.674
				C1100.182,817.041,1117.965,809.991,1138.836,808.719z"/>
			<path fill-rule="evenodd" clip-rule="evenodd" d="M41.001,818.806c-15.496-1.912-26.988-10.175-33.102-24.261
				c-2.171-5.002-0.544-11.771-0.179-17.704c0.184-2.993,1.755-5.881,2.105-8.886c0.478-4.096-1.75-7.918,4.728-10.958
				c2.781-1.305,1.909-12.121,1.296-18.481c-0.699-7.25-3.185-14.709,4.162-19.716c7.727-5.267,16.375-6.475,24.911-1.857
				c8.707,4.709,16.977,3.081,25.097-0.994c24.65-12.368,35.245-10.381,54.91,9.113c6.155,6.103,13.953,10.524,20.845,15.911
				c12.083,9.445,15.843,22.656,9.204,31.664c-6.434,8.73-21.343,9.182-33.086-0.003c-5.567-4.354-10.307-10.082-14.43-15.891
				c-6.206-8.74-14.675-12.737-24.79-12.919c-7.777-0.141-15.658,0.764-23.351,2.051c-8.941,1.495-12.223,6.454-10.233,15.552
				c1.73,7.91,2.135,14.811-2.54,22.364c-4.106,6.636,7.898,30.26,15.715,31.033c5.111,0.506,13.343-1.242,15.479-4.801
				c12.688-21.129,33.794-21.898,54.202-23.403c4.937-0.364,11.745,4.449,14.871,8.875c1.408,1.992-3.202,9.834-6.775,13.251
				c-2.979,2.85-8.461,4.37-12.781,4.266c-9.055-0.22-14.897,2.854-20.146,10.565c-12.198,17.92-33.097,24.021-52.162,16.578
				C43.658,835.744,40.453,830.903,41.001,818.806z"/>
			<path fill-rule="evenodd" clip-rule="evenodd" d="M1600.789,857.458c-14.947-2.008-25.726-9.498-32.731-21.933
				c-4.146-7.359-5.912-14.728,0.723-22.549c2.405-2.834,1.428-8.538,1.687-10.54c3.01-4.012,6.176-6.308,6.22-8.664
				c0.114-6.177-0.942-12.409-1.871-18.568c-2.544-16.874,10.048-28.013,25.732-20.859c12.315,5.618,21.817,4.421,33.304-1.915
				c19.493-10.75,32.275-7.396,47.895,8.545c5.631,5.747,12.971,9.792,18.828,15.353c5.764,5.472,12.604,11.137,15.246,18.126
				c1.934,5.115-0.795,13.307-3.928,18.68c-3.603,6.181-10.599,6.166-17.688,4.196c-11.275-3.134-19.026-10.41-25.726-19.327
				c-11.271-15-39.503-20.827-55.783-11.613c-5.822,3.294-5.104,8.315-4.971,13.849c0.164,6.85,0.02,14.006-1.787,20.534
				c-2.455,8.866,7.18,31.019,16.213,33.083c3.497,0.798,7.665-0.876,11.409-1.871c1.331-0.354,2.662-1.831,3.4-3.131
				c10.927-19.25,30.127-21.439,49.156-23.882c11.966-1.535,20.289,2.738,21.091,10.518c0.738,7.181-9.979,16.632-19.848,16.094
				c-9.91-0.541-15.835,3.176-21.606,11.316c-13.456,18.98-36.662,24.049-55.813,13.718
				C1601.502,872.064,1599.54,868.2,1600.789,857.458z"/>
			<path fill-rule="evenodd" clip-rule="evenodd" d="M386.991,1121.306c-7.166-4.576-14.244-9.295-21.517-13.695
				c-11.757-7.113-14.528-16.214-8.336-28.302c11.311-22.083,34.312-31.226,56.656-21.378c14.689,6.474,29.553,6.892,45.034,5.623
				c23.749-1.947,40.495,9.701,46.667,31.759c5.615,20.065-3.303,40.055-23.204,45.981c-23.271,6.929-39.806,20.652-52.927,40.547
				c-10.727,16.264-29.957,19-46.328,8.206c-11.485-7.572-18.805-18.301-22.03-31.596c-3.679-15.17,2.222-25.45,16.979-30.678
				c2.595-0.919,5.088-2.128,7.628-3.202C386.072,1123.482,386.532,1122.394,386.991,1121.306z M469.117,1104.555
				c0.597-1.225,1.194-2.451,1.792-3.677c-4.656-3.466-8.84-8.184-14.062-10.159c-14.233-5.387-29.072-6.422-44.168-3.313
				c-17.425,3.588-21.02,11.518-11.532,26.268c7.911,12.296,5.326,24.273-6.978,32.129c-2.363,1.508-5.048,2.581-7.213,4.319
				c-7.098,5.698-6.115,13.425-3.762,20.618c1.014,3.099,4.537,6.831,7.583,7.582c24.578,6.051,43.97-8.635,45.941-34.142
				c0.505-6.532,1.187-13.052,1.879-19.567c1.221-11.492,6.259-16.492,17.81-18C460.661,1106.059,464.881,1105.249,469.117,1104.555
				z"/>
			<path fill-rule="evenodd" clip-rule="evenodd" d="M1078.609-137.934c26.948,0.303,39.477,10.114,51.461,36.151
				c3.614,7.849,12.307,13.614,19.308,19.59c10.133,8.648,21.712,15.751,31.074,25.114c10.199,10.2,10.349,19.356,3.362,27.388
				c-5.714,6.57-17.46,6.211-28.236-1.82c-13.748-10.246-25.123-22.626-30.579-39.396c-5.57-17.125-15.4-29.58-33.867-34.284
				c-22.369-5.698-36.013,6.278-31.602,28.934c1.602,8.223,3.957,16.405,6.96,24.225c5.851,15.229,16.303,25.459,32.924,28.985
				c7.264,1.542,14.505,4.059,21.17,7.329c8.594,4.216,10.294,10.484,3.823,17.383c-4.331,4.615-11.121,8.403-17.341,9.465
				c-13.949,2.383-27.859-0.72-39.43-8.658c-5.932-4.071-10.775-11.311-13.461-18.157c-3.981-10.155-8.51-19.334-17.066-26.343
				c-3.123-2.558-5.824-5.692-8.44-8.796c-12.686-15.056-13.605-23.682-3.944-40.85c5.059-8.99,10.345-17.883,16.063-26.462
				C1050.873-133.267,1060.605-138.137,1078.609-137.934z"/>
			<path fill-rule="evenodd" clip-rule="evenodd" d="M650.626,557.821c-15.501-5.179-30.162-11.983-39.536-27.354
				c-1.549-2.541-10.776-3.56-13.708-1.455c-6.581,4.725-12.921,11.064-16.69,18.164c-8.444,15.902-8.487,16.62-27.039,13.091
				c-1.906-12.474-2.863-25.106,1.768-37.5c4.598-12.305,13.099-19.89,26.775-19.517c13.645,0.372,25.918-2.007,36.328-11.909
				c2.105-2.003,7.978-2.045,11.07-0.661c12.764,5.71,24.071,13.26,28.899,27.668c0.712,2.126,4.22,3.443,6.595,4.864
				c9.793,5.855,20.645,10.438,29.203,17.724c8.686,7.393,5.23,15.759-6.173,17.438c-5.843,0.86-11.843,0.657-18.368,0.962
				c1.531,2.626,3.326,4.994,4.393,7.653c6.221,15.496-2.3,30.252-18.879,32.569c-4.94,0.69-10.075,0.142-14.954,1.052
				c-2.992,0.558-6.471,2.146-8.348,4.414c-8.163,9.867-16.244,11.389-26.699,4.213c-1.799-1.234-3.819-2.444-5.048-4.159
				c-5.729-7.996-12.604-11.511-23.061-10.229c-7.744,0.949-15.914-3.332-16.231-12.056c-0.158-4.342,5.339-12.03,9.221-12.695
				c7.112-1.218,15.06,1.131,22.383,3.046c3.365,0.88,6.077,4.254,9.088,6.493c10.428,7.751,16.012,7.384,25.633-1.304
				C634.828,571.487,642.597,564.852,650.626,557.821z"/>
			<path fill-rule="evenodd" clip-rule="evenodd" d="M1333.392-24.221c-0.722,24.45-17.207,41.262-37.998,38.03
				c-10.942-1.701-16.745-10.491-13.221-21.087c2.758-8.291,6.956-16.116,9.497-24.458c1.078-3.541-0.442-7.874-0.782-11.846
				c-4.827,1.385-10.957,1.432-14.129,4.518c-3.409,3.316-4.476,9.373-5.802,14.434c-3.648,13.915-10.248,20.215-21.226,19.56
				c-13.96-0.833-25.172-10.618-26.592-23.502c-1.126-10.224,2.251-19.093,8.813-26.874c3.63-4.303,7.406-8.508,10.718-13.048
				c5.387-7.386,6.695-15.355,2.127-23.713c-4.286-7.841-3.63-15.54,2.593-21.596c8.752-8.519,19.132-14.847,32.032-11.724
				c9.303,2.252,11.438,10.702,12.995,18.916c0.349,1.837,0.528,3.741,0.495,5.609c-0.221,12.401,3.777,21.495,16.952,25.391
				c10.912,3.228,16.555,11.827,18.562,22.792C1330.171-43.303,1331.743-33.755,1333.392-24.221z"/>
			<path fill-rule="evenodd" clip-rule="evenodd" d="M330.111,974.141c-15.945,0.903-30.327-4.243-43.708-12.13
				c-17.515-10.324-34.902-20.904-51.914-32.032c-22.464-14.695-21.89-39.127,0.368-54.383c7.674-5.262,14.673-11.664,21.359-18.183
				c19.709-19.215,34.161-21.578,58.265-8.865c8.831,4.658,10.211,12.879,2.969,19.914c-8.495,8.25-19.314,11.035-30.736,12.264
				c-13.012,1.4-25.458,3.772-32.406,17.071c-5.193,9.942-2.789,15.476,8.204,17.085c5.257,0.77,10.535,1.549,15.83,1.874
				c11.355,0.696,21.32,4.544,29.835,12.136c3.038,2.707,6.157,5.324,9.301,7.907c12.094,9.934,25.128,12.795,40.211,6.814
				c8.906-3.531,18.35-6.085,27.786-7.776c7.672-1.375,11.12,4.301,7.744,10.367c-3.598,6.465-8.901,13.944-15.264,16.516
				c-15.13,6.115-31.326,9.595-47.091,14.14C330.612,975.952,330.361,975.046,330.111,974.141z"/>
			<path fill-rule="evenodd" clip-rule="evenodd" d="M1442.478,614.829c-2.234,6.771-3.609,13.987-6.847,20.238
				c-16.462,31.786-38.499,58.412-71.39,74.586c-18.583,9.138-30.721,8.14-44.057-3.843c-11.708-10.521-14.003-28.772-5.05-41.777
				c2.651-3.854,6.447-6.997,8.695-11.035c5.393-9.683,10.27-19.659,15.18-29.604c4.101-8.309,7.043-17.357,12.182-24.936
				c4.687-6.909,12.585-9.512,20.784-5.43c9.182,4.57,12.285,10.921,7.391,21.07c-7.563,15.685-17.087,30.426-25.857,45.523
				c-1.25,2.151-3.233,3.897-4.362,6.096c-1.933,3.764-7.603,7.026-2.449,12.128c5.058,5.006,11.852,6.757,16.905,2.048
				c7.389-6.885,14.546-14.725,19.38-23.493c8.427-15.286,14.585-31.808,22.579-47.355c2.997-5.83,7.476-12.314,12.998-15.143
				C1431.561,587.245,1441.819,597.016,1442.478,614.829z"/>
			<path fill-rule="evenodd" clip-rule="evenodd" d="M626.142,623.561c7.752,0.914,15.569,1.462,23.241,2.822
				c13.823,2.45,19.863,8.485,20.64,22.614c1.134,20.591-2.138,40.305-13.077,58.561c-4.864,8.116-8.069,17.479-10.609,26.667
				c-2.593,9.377-5.96,17.33-16.435,19.37c-6.569,1.279-17.606-6.299-20.877-15.001c-0.984-2.617,0.718-7.083,2.552-9.775
				c8.429-12.375,18.293-23.874,25.7-36.801c4.105-7.164,6.075-16.531,6.002-24.88c-0.107-12.257-10.905-18.508-22.645-14.954
				c-13.161,3.986-23.854,17.35-24.754,31.158c-0.671,10.3-1.085,20.616-1.732,30.918c-1.161,18.467-16.31,31.213-34.322,28.967
				c-17.665-2.203-26.277-18.43-17.327-33.849c4.195-7.227,10.416-13.246,15.142-20.203c8.001-11.778,17.202-23.133,22.902-35.993
				C589.634,632.669,602.678,620.979,626.142,623.561z"/>
			<path fill-rule="evenodd" clip-rule="evenodd" d="M151.909-62.099c10.477,2.671,21.405,4.241,31.316,8.295
				c11.907,4.869,14.215,14.947,7.883,26.262C178.33-4.707,159.625,0.991,136.117-10.265c-6.402-3.065-13.387-6.185-20.252-6.554
				c-4.456-0.24-10.567,3.504-13.194,7.341c-1.32,1.927,2.397,9.664,5.753,11.915c6.082,4.078,13.67,5.855,20.501,8.88
				c13.689,6.063,17.954,12.238,17.289,23.55c-0.408,6.952-3.755,11.232-10.473,12.417c-20.648,3.641-39.7-1.197-57.355-11.859
				c-3.037-1.834-5.312-5.268-7.359-8.35C59.509,9.73,66.615-33.336,89.473-44.346C109.24-53.867,129.433-60.255,151.909-62.099z"/>
			<path fill-rule="evenodd" clip-rule="evenodd" d="M773,360.301c12.336,0.182,26.017,1.61,37.377,10.822
				c12.764,10.352,12.948,20.572,1.344,31.342c-6.002,5.571-8.246,12.4-4.578,20.349c0.131,0.285,0.288,0.557,0.415,0.843
				c11.133,25.135,6.89,35.147-19.058,44.893c-17.309,6.502-35.001,8.621-53.47,6.112c-46.102-6.264-48.541-46.319-33.354-73.893
				C715.733,375.251,740.161,361.961,773,360.301z M745.184,441.855c24.927-1.248,33.955-5.156,41.813-17.13
				c7.353-11.204,7.382-26.405,0.063-34.021c-7.779-8.096-28.16-12.515-36.624-6.221c-14.837,11.035-23.916,26.114-24.801,45.074
				c-0.326,6.978,4.208,10.816,10.873,11.798C740.19,441.898,743.968,441.794,745.184,441.855z"/>
			<path fill-rule="evenodd" clip-rule="evenodd" d="M1066.409,759.056c-0.99,5.825-1.405,11.824-3.092,17.439
				c-3.529,11.757-8.948,15.176-22.356,15.335c-9.922,0.119-16.688-4.605-19.914-15.014c-1.833-5.918-2.823-12.176-3.501-18.356
				c-1.103-10.06-5.747-17.868-14.225-23.023c-12.433-7.56-25.768-12.376-40.611-12.954c-9.247-0.36-15.497,3.323-20.221,10.863
				c-5.145,8.213-9.691,17.048-16.144,24.109c-4.407,4.823-11.343,9.045-17.671,9.977c-7.994,1.176-14.442-7.957-13.2-16.784
				c3.226-22.913,17.927-37.832,36.012-50.177c1.182-0.807,3.1-1.46,4.349-1.088c6.435,1.918,9.154-1.237,10.873-6.868
				c2.582-8.464,9.493-13.809,17.331-13.26c6.994,0.49,17.208,3.846,19.799,9.035c7.16,14.332,19.217,15.721,32.014,16.667
				C1049.188,707.423,1065.801,725.181,1066.409,759.056z"/>
			<path fill-rule="evenodd" clip-rule="evenodd" d="M1220.26,170.857c-20.475-1.549-39.525-9.86-53.772-27.387
				c-10.234-12.586-11.026-27.108-0.899-38.671c10.119-11.555,15.285-24.659,18.438-39.306
				c4.193-19.475,35.261-32.069,52.447-21.765c10.615,6.366,10.682,23.586-0.421,29.595c-5.938,3.215-12.857,4.68-19.408,6.691
				c-15.9,4.88-19.014,9.679-19.401,26.202c-0.227,9.613-2.685,19.155-3.298,28.782c-0.649,10.184,4.007,14.175,12.991,10.156
				c21.001-9.391,38.262-23.56,49.348-44.171c3.543-6.588,5.693-13.921,9.2-20.532c4.889-9.213,13.531-12.777,20.888-9.393
				c8.111,3.734,11.986,11.923,6.73,21.423c-12.215,22.088-25.302,43.778-39.436,64.683
				C1246.699,167.468,1234.59,170.837,1220.26,170.857z"/>
			<path fill-rule="evenodd" clip-rule="evenodd" d="M1628.346,38.67c0.875-6.364,2.058-14.719,3.169-23.083
				c2.592-19.509,15.323-29.704,33.31-31.441c20.133-1.946,40.61-1.875,60.836-0.795c13.523,0.722,24.834,8.358,33.122,19.337
				c7.273,9.633,4.854,16.173-6.867,15.745c-15.423-0.563-30.745-3.654-46.129-5.5c-10.423-1.25-20.862-2.411-31.323-3.273
				c-8.416-0.694-12.153,5.126-14.885,11.806c-2.945,7.203-2.892,14.368,2.669,20.209c9.506,9.984,21.003,15.998,35.218,13.748
				c7.742-1.226,15.215-3.207,18.974,6.371c3.755,9.569-0.064,23.999-7.423,28.754c-30.632,19.795-76.041-1.593-79.772-37.603
				C1628.824,48.9,1628.723,44.823,1628.346,38.67z"/>
			<path fill-rule="evenodd" clip-rule="evenodd" d="M1527.258,925.202c7.4,6.79,13.154,12.755,19.613,17.82
				c7.864,6.166,16.492,11.348,24.444,17.408c3.674,2.799,6.887,6.401,9.686,10.11c7.146,9.47,7.089,15.256,0.449,25.585
				c-5.491,8.541-13.294,12.048-23.438,9.352c-12.623-3.356-21.554-10.515-27.63-23.074c-5.421-11.208-14.359-20.789-22.213-30.718
				c-5.591-7.068-12.868-12.926-17.753-20.397c-6.631-10.141-5.109-21.499,4.407-28.658c27.615-20.775,70.625-31.68,101.806,2.258
				c2.106,2.293,4.099,4.763,5.734,7.404c6.261,10.102,2.965,15.876-8.364,18.763c-10.878,2.771-19.669,0.522-29.157-4.878
				C1554.117,920.075,1542.239,917.232,1527.258,925.202z"/>
			<path fill-rule="evenodd" clip-rule="evenodd" d="M919.784,230.615c25.093,0.026,30.62-4.651,38.63-29.197
				c1.943-5.957,7.525-10.767,11.604-15.973c2.43-3.1,7.857-6.739,7.262-8.737c-1.358-4.539-4.997-10.862-8.793-11.735
				c-10.784-2.478-22.106-2.647-33.226-3.61c-10.188-0.883-20.739-0.249-30.495-2.756c-12.625-3.243-17.932-11.276-16.028-19.598
				c2.511-10.974,16.93-21.537,27.645-19.556c5.775,1.068,11.622,2.901,16.845,5.553c9.365,4.757,18.9,5.581,29.134,4.397
				c5.809-0.672,11.939-0.442,17.687,0.645c11.093,2.1,15.262,4.297,16.173,17.491c0.819,11.854,6.439,23.373,9.908,35.05
				c1.868,6.288,4.152,12.501,5.397,18.913c3.266,16.821-4.409,29.38-20.983,33.307c-20.626,4.885-41.405,9.162-62.221,13.169
				c-5.738,1.104-11.84,0.409-17.775,0.372c-7.012-0.043-9.792-3.73-9.718-10.677c0.085-7.958,5.643-6.805,10.498-7.027
				C914.141,230.515,916.965,230.621,919.784,230.615z"/>
			<path fill-rule="evenodd" clip-rule="evenodd" d="M1598.018-26.358c-1.222,1.984-1.806,3.012-2.465,3.99
				c-3.81,5.652-5.39,15.505-14.628,12.948c-9.625-2.663-18.475-8.462-20.435-19.745c-1.57-9.043-7.027-13.821-15.465-12.828
				c-11.283,1.329-22.982,2.948-33.348,7.235c-11.491,4.755-15.369,16.655-11.472,26.366c5.529,13.774,16.478,20.577,29.073,17.991
				c16.451-3.377,32.817-7.265,49.381-9.942c5.209-0.842,11.096,0.956,16.389,2.513c11.469,3.375,15.085,8.829,13.576,18.958
				c-1.646,11.05-7.664,16.065-19.045,16.723c-14.372,0.831-28.708,2.311-43.082,3.062c-5.236,0.274-10.691-0.087-15.786-1.275
				c-29.305-6.829-53.783-38.928-52.053-67.798c1.131-18.859,15.954-32.371,34.755-34.046c10.909-0.971,22.122-3.653,32.179-7.953
				c18.17-7.768,31.701-2.326,36.618,16.82c1.238,4.826,2.114,9.828,2.405,14.793C1585.091-30.448,1586.912-24.188,1598.018-26.358z
				"/>
			<path fill-rule="evenodd" clip-rule="evenodd" d="M1193.483,646.84c11.119,0.885,28.957,3.8,37.702,22.784
				c3,6.514,5.178,14.583,4.279,21.493c-2.638,20.296-8.91,39.584-21.09,56.589c-8.656,12.087-20.247,19.598-34.522,22.464
				c-3.841,0.772-10.671-0.688-12.03-3.276c-1.864-3.548-1.353-10.125,0.89-13.657c3.947-6.218,9.681-11.437,15.189-16.501
				c15.692-14.427,23.755-32.823,27.517-53.198c2.353-12.739-1.591-22.785-8.062-24.721c-6.244-1.869-22.057,7.246-26.03,15.371
				c-1.772,3.62-2.328,7.846-4.166,11.421c-3.664,7.127-6.705,15.059-12.052,20.725c-8.462,8.966-12.939,18.456-13.139,30.894
				c-0.275,17.234-4.52,19.75-20.854,14.418c-2.373-0.775-4.887-1.423-6.979-2.709c-15.573-9.581-21.547-14.014-9.839-32.573
				c9.839-15.597,19.631-31.29,30.551-46.124C1151.894,655.238,1166.49,645.452,1193.483,646.84z"/>
			<path fill-rule="evenodd" clip-rule="evenodd" d="M1765.894,338.849c5.478,1.149,9.445,2.583,13.453,2.707
				c10.938,0.339,21.905-0.189,32.841,0.216c12.84,0.475,20.264,6.545,21.562,16.738c1.188,9.346-4.353,18.186-16.181,21.121
				c-27.732,6.882-56.117,9.848-84.593,6.986c-15.753-1.583-21.834-11.902-16.549-26.98c5.562-15.871,11.97-31.634,19.866-46.454
				c11.057-20.749,44.634-27.743,64.299-14.627c1.295,0.864,2.987,1.673,3.588,2.939c2.31,4.865,6.343,10.276,5.551,14.744
				c-0.486,2.745-8.41,5.277-13.26,5.925C1784.834,323.717,1773.811,325.581,1765.894,338.849z"/>
			<path fill-rule="evenodd" clip-rule="evenodd" d="M293.984,82.731c-5.467-0.449-9.653-0.896-13.852-1.119
				c-13.179-0.7-21.833-7.524-23.505-18.652c-1.61-10.707,7.5-25.888,17.563-29.269c17.516-5.884,28.473-1.326,35.146,15.564
				c2.958,7.485,7.716,10.622,15.447,11.099c15.953,0.988,21.181,11.432,13.238,25.013c-4.866,8.322-9.334,16.928-13.278,25.723
				c-5.64,12.577-14.866,19.559-28.587,21.068c-22.996,2.528-42.352-1.28-55.01-24.057c-5.76-10.365-16.602-17.786-23.681-27.594
				c-2.904-4.024-4.552-12.883-2.168-15.881c3.639-4.576,11.155-7.683,17.255-8.111c3.984-0.279,9.543,4.46,12.341,8.408
				c5.569,7.853,9.662,16.743,14.475,25.142c4.232,7.387,10.82,10.344,19.023,8.768C286.494,97.276,290.801,91.597,293.984,82.731z"
				/>
			<path fill-rule="evenodd" clip-rule="evenodd" d="M1097.778,392.044c-9.377,0.914-19.196,4.249-25.708,14.78
				c-4.757,7.693-10.626,14.705-16.079,21.96c-4.89,6.506-6.031,13.056-2.876,21.033c5.004,12.649-0.12,18.992-13.776,18.326
				c-17.818-0.868-27.728-15.463-20.971-31.9c5.339-12.988,10.538-26.295,17.948-38.114c13.513-21.55,34.823-33.207,58.923-38.757
				c17.44-4.016,33.565,1.593,46.971,13.467c7.827,6.934,8.98,16.548,2.553,27.426c-7.148,12.102-15.725,23.351-23.392,35.158
				c-4.412,6.793-8.378,13.886-12.315,20.972c-3.381,6.086-4.997,14.842-14.897,11.733c-7.922-2.486-11.465-13.824-7.181-22.404
				c4.328-8.668,9.521-16.902,14.259-25.369c2.748-4.912,5.744-9.739,7.93-14.9C1113.549,395.101,1111.042,391.739,1097.778,392.044
				z"/>
			<path fill-rule="evenodd" clip-rule="evenodd" d="M642.015,384.87c9.754,1.787,14.035,7.738,14.976,16.875
				c1.057,10.255,2.894,20.434,3.794,30.699c0.943,10.75-4.885,20.748-13.579,24.689c-8.943,4.055-19.072,0.719-24.312-8.007
				c-4.622-7.698-2.856-13.96,5.938-20.768c1.475-1.142,3.459-1.776,4.609-3.147c1.446-1.723,3.5-4.295,3.067-5.899
				c-0.58-2.147-3.237-5.213-5.103-5.285c-9.589-0.367-19.279-0.551-28.796,0.477c-7.814,0.844-6.684,8.562-8.402,13.977
				c-2.697,8.494-4.933,17.256-8.755,25.237c-3.692,7.707-10.729,8.596-18.495,5.453c-12.145-4.917-17.592-14.352-18.667-26.852
				c-1.111-12.925,2.679-23.411,14.818-29.848c4.127-2.187,7.964-4.915,12.01-7.264c9.922-5.763,15.178-14.087,16.042-25.763
				c0.886-11.954,5.406-16.947,16.968-18.959c12.604-2.193,24.351,0.966,34.303,9.008C649.675,365.347,649.4,370.933,642.015,384.87
				z"/>
			<path fill-rule="evenodd" clip-rule="evenodd" d="M1854.144,619.835c-6.104,2.776-12.635,4.896-18.188,8.513
				c-5.431,3.538-9.647,8.876-14.778,12.943c-13.023,10.325-29.248,4.297-32.946-12.046c-3.283-14.509,3.905-28.974,17.954-33.927
				c9.708-3.423,16.62-8.592,21.052-18.286c4.687-10.253,20.319-16.341,31.67-11.46c9.103,3.912,17.407,10.462,24.848,17.189
				c5.581,5.046,9.839,10.794,18.186,11.92c7.283,0.982,10.079,6.363,9.562,13.732c-1.402,19.946-29.829,50.876-49.854,52.662
				c-5.224,0.465-12.604-1.857-15.675-5.612c-2.374-2.9-0.611-10.442,1.208-15.195c2.291-5.986,6.512-11.233,9.9-16.798
				C1856.102,622.257,1855.123,621.047,1854.144,619.835z"/>
			<path fill-rule="evenodd" clip-rule="evenodd" d="M1852.454,121.582c-5.256-0.801-9.473-1.704-13.733-2.043
				c-12.095-0.963-19.495-5.679-21.88-14.276c-2.575-9.289,1.693-22.194,9.257-27.982c17.622-13.485,34.117-9.384,42.73,11.042
				c2.89,6.855,6.763,10.279,14.605,10.534c16.9,0.549,22.162,11.613,13.111,26.04c-3.313,5.283-7.215,10.503-9.109,16.319
				c-7.409,22.736-18.518,33.482-53.92,29.341c-12.815-1.499-22.893-6.784-28.534-19.67c-2.506-5.726-7.998-10.209-12.386-15.03
				c-5.242-5.761-11.338-10.84-15.982-17.026c-4.734-6.303-5.542-13.335,1.787-19.028c7.604-5.907,18.722-6.207,23.492,0.596
				c6.254,8.916,11.13,18.79,16.74,28.168c3.828,6.399,9.587,10.357,17.075,9.149C1843.795,136.41,1850.082,132.05,1852.454,121.582
				z"/>
			<path fill-rule="evenodd" clip-rule="evenodd" d="M1111.904,566.56c15.666,1.433,30.909-0.309,44.146-9.128
				c5.533-3.686,10.472-8.962,14.195-14.513c6.305-9.4,4.715-21.152-2.452-27.429c-6.502-5.695-19.991-5.46-27.88,1.068
				c-5.037,4.17-9.259,9.311-14.099,13.738c-7.606,6.959-14.399,6.848-21.437-0.003c-8.85-8.616-11.273-19.109-4.104-25.44
				c6.078-5.369,13.885-9.632,21.651-12.073c20.552-6.46,41.605-4.232,62.027,0.686c23.726,5.714,31.559,26.192,19.124,47.124
				c-20.224,34.038-49.444,55.93-88.376,63.899c-16.26,3.33-29.313-3.389-36.27-16.895c-4.58-8.896-1.432-16.505,8.402-18.351
				C1095.07,567.698,1103.539,567.407,1111.904,566.56z"/>
			<path fill-rule="evenodd" clip-rule="evenodd" d="M189.14,595.898c0,6.556,0.101,13.114-0.018,19.668
				c-0.49,27.23-15.113,41.344-42.417,41.028c-27.913-0.324-67.757-34.291-71.884-61.282c-2.466-16.133,13.412-30.079,28.546-24.119
				c4.781,1.882,8.815,7.414,11.606,12.199c4.625,7.926,5.999,17.859,16.097,22.042c1.59,0.658,2.021,4.827,2.442,7.461
				c1.407,8.79,5.692,16.236,14.514,17.356c4.264,0.542,10.501-3.635,13.646-7.474c5.642-6.888,4.279-15.032-1.722-21.325
				c-6.615-6.936-13.468-13.989-21.374-19.254c-8.397-5.592-10.846-13.709-2.81-20.195c11.056-8.923,24.385-12.805,38.569-11.15
				c9.033,1.055,15.046,9.246,15.571,19.719c0.422,8.422,0.085,16.881,0.085,25.324C189.709,595.896,189.424,595.897,189.14,595.898
				z"/>
			<path fill-rule="evenodd" clip-rule="evenodd" d="M383.762,709.178c-0.886,5.858-1.64,11.739-2.683,17.569
				c-3.115,17.415-12.877,28.337-31.009,29.917c-19.437,1.693-33.476,11.382-45.504,26.338
				c-14.671,18.244-51.237,22.071-70.122,7.928c-3.352-2.51-6.547-8.833-5.667-12.362c0.861-3.458,6.734-7.218,10.91-7.941
				c6.631-1.148,13.682,0.103,20.553,0.367c17.859,0.687,27.049-4.51,31.217-21.604c3.364-13.802,11.685-19.639,24.182-22.494
				c5.758-1.314,11.745-2.621,16.862-5.363c2.922-1.565,6.043-6.117,5.855-9.123c-0.167-2.674-4.383-5.827-7.501-7.421
				c-5.2-2.66-11.339-3.593-16.312-6.549c-2.619-1.558-5.306-6.149-4.848-8.841c0.454-2.667,4.784-6.585,7.477-6.635
				c12.344-0.232,24.75,0.271,37.051,1.409c5.471,0.506,10.73,3.179,16.112,4.782C380.341,692.134,386.344,697.676,383.762,709.178z
				"/>
			<path fill-rule="evenodd" clip-rule="evenodd" d="M296.612,522.646c9.659-0.395,16.958,4.194,22.593,11.351
				c3.84,4.878,6.232,10.949,10.306,15.576c3.163,3.592,7.565,7.122,12.048,8.318c10.704,2.855,13.888,7.315,9.699,17.487
				c-8.496,20.627-20.157,38.208-43.73,43.962c-14.745,3.6-18.771,0.098-17.688-14.952c0.703-9.776,3.268-20.365-8.698-26.214
				c-8.709-4.257-13.356-2.413-16.07,6.866c-1.826,6.244-3.274,12.661-5.785,18.625c-3.459,8.223-9.443,10.402-16.359,4.901
				c-6.702-5.332-12.666-12.039-17.508-19.127c-4.678-6.848-2.153-14.405,3.868-19.346c6.931-5.688,14.398-11.31,22.565-14.741
				c8.115-3.409,13.542-8.441,17.547-15.778C275.277,528.808,284.327,523.099,296.612,522.646z"/>
			<path fill-rule="evenodd" clip-rule="evenodd" d="M1801.991,1171.896c-7.581-2.066-22.823-5.452-37.509-10.47
				c-11.515-3.934-16.204-14.329-11.53-25.902c4.283-10.612,10.385-20.592,16.531-30.315c4.619-7.307,8.674-14.058,7.372-23.388
				c-1.205-8.634,4.09-14.023,12.003-16.825c12.401-4.392,24.744-3.312,36.703,1.356c9.038,3.527,10.185,15.21,1.595,21.236
				c-7.87,5.521-17.038,9.156-25.396,14.029c-11.923,6.951-15.584,18.569-8.864,30.315c1.918,3.352,7.06,6.9,10.559,6.742
				c3.617-0.163,7.7-4.204,10.317-7.54c1.924-2.451,2.521-6.502,2.499-9.833c-0.127-19.583,12.861-30.39,27.014-40.043
				c2.944-2.008,9.969-2.683,11.692-0.815c3.094,3.35,5.236,9.275,4.742,13.792c-0.576,5.27-3.754,10.645-6.952,15.16
				c-7.162,10.114-9.954,21.374-10.987,33.415C1839.904,1164.614,1831.504,1172.214,1801.991,1171.896z"/>
			<path fill-rule="evenodd" clip-rule="evenodd" d="M805.351,196.863c-8.63-2.385-24.424-6.059-39.714-11.223
				c-9.723-3.285-14.696-13.269-11.078-22.881c4.36-11.581,10.298-22.706,16.719-33.322c4.612-7.624,9.362-14.472,7.987-24.106
				c-1.005-7.04,3.157-12.041,9.468-14.646c11.405-4.708,23.417-5.94,34.608-0.524c4.676,2.264,9.573,7.938,10.489,12.794
				c0.653,3.46-4.384,9.254-8.289,12.023c-6.034,4.277-13.36,6.69-19.977,10.197c-11.482,6.083-16.487,18.109-11.396,30.031
				c1.672,3.917,7,8.91,10.438,8.75c4.073-0.19,8.442-4.958,11.641-8.645c1.775-2.047,1.837-5.92,1.966-9
				c0.853-20.333,12.932-32.413,29.994-40.536c8.225-3.916,15.704,1.6,14.191,10.608c-0.904,5.382-3.024,11.044-6.161,15.474
				c-8.094,11.431-11.225,24.123-12.584,37.737C841.676,189.396,832.992,196.801,805.351,196.863z"/>
			<path fill-rule="evenodd" clip-rule="evenodd" d="M1748.199,635.322c0,5.95,0.081,11.9-0.014,17.849
				c-0.542,33.715-30.062,52.946-60.466,37.957c-19.815-9.769-35.786-25.268-48.092-43.805c-3.326-5.012-4.94-11.525-6.001-17.584
				c-1.363-7.785,1.648-13.212,10.524-14.618c3.003-0.475,5.372-4.211,8.435-5.181c9.461-2.993,16,0.119,20.799,9.456
				c4.612,8.974,6.081,19.936,17.269,24.617c1.726,0.723,1.809,5.616,2.457,8.621c1.692,7.845,5.257,15.469,13.711,15.538
				c5.088,0.042,11.599-4.183,15.013-8.455c5.367-6.717,2.982-14.705-2.82-20.38c-7.29-7.128-15.19-13.739-23.42-19.763
				c-6.082-4.451-7.468-12.316-1.271-17.204c11.546-9.106,25.041-12.851,39.574-11.604c8.834,0.757,13.108,7.194,13.592,15.459
				c0.565,9.668,0.132,19.396,0.132,29.097C1747.813,635.322,1748.006,635.322,1748.199,635.322z"/>
			<path fill-rule="evenodd" clip-rule="evenodd" d="M1192.369,360.186c0.004-21.625,11.956-38.588,32.292-45.701
				c8.128-2.843,17.585-3.836,22.772,2.951c4.679,6.122,5.507,15.279,7.529,23.225c0.254,1-2.328,3.399-4.021,4.055
				c-2.568,0.997-5.503,1.079-8.294,1.473c-23.634,3.341-33.694,28.642-19.208,48.329c6.662,9.053,19.517,11.855,26.949,3.494
				c8.072-9.082,13.247-20.723,19.823-31.161c2.479-3.934,5.344-7.624,8.032-11.424c2.489,4.058,5.97,7.816,7.304,12.223
				c7.472,24.696,1.287,47.791-10.292,69.583c-6.566,12.359-18.54,17.147-31.22,11.278c-10.739-4.971-21.578-12.041-29.211-20.905
				C1200.672,411.166,1192.365,381.887,1192.369,360.186z"/>
			<path fill-rule="evenodd" clip-rule="evenodd" d="M1047.08,23.062c0.137,7.95-4.569,15.546-12.434,20.064
				c-20.293,11.657-40.771,23.084-61.781,33.366c-11.695,5.723-21.06,2.895-28.146-5.246c-9.606-11.035-12.24-23.577-6.2-34.407
				c3.463-6.21,8.524-11.506,12.542-17.432c7.481-11.033,14.642-22.281,22.099-33.33c4.843-7.176,9.27-14.825,15.158-21.055
				c7.385-7.811,18.418-8.006,27.52-2.095C1026.67-30.04,1047.172,8.252,1047.08,23.062z M970.881,55.325
				c6.922-4.854,13.468-7.123,15.942-11.628c6.712-12.216,15.265-18.757,29.816-17.883c7.05,0.423,10.267-6.723,6.982-12.647
				c-4.318-7.788-15.024-10.928-23.293-7.724c-13.763,5.333-22.806,15.963-31.305,27.105c-2.503,3.281-4.308,7.956-4.315,11.996
				C964.702,47.603,968.057,50.669,970.881,55.325z"/>
			<path fill-rule="evenodd" clip-rule="evenodd" d="M733.564,709.616c-13.029-0.094-20.71-8.776-25.959-20.095
				c-5.198-11.21-8.021-23.251,1.473-33.326c6.283-6.668,14.183-12.198,22.2-16.756c11.45-6.51,20.412-13.783,25.553-26.999
				c3.504-9.011,11.823-16.639,19.278-23.481c7.099-6.516,16.59-7.242,25.652-3.698c21.424,8.375,39.433,21.585,53.329,39.961
				c4.272,5.65,8.86,12.056,1.111,18.939c-7.755,6.89-14.438,7.544-22.577,0.866c-7.482-6.14-14.177-13.235-21.645-19.396
				c-10.846-8.949-17.069-8.907-28.336-0.37c-10.452,7.921-20.929,15.828-31.038,24.173c-6.598,5.447-8.108,12.16-3.147,19.956
				c2.315,3.64,3.917,7.83,5.297,11.953C762.097,703.281,751.954,708.499,733.564,709.616z"/>
			<path fill-rule="evenodd" clip-rule="evenodd" d="M1511.711,1061.312c-8.322,27.886-39.214,51.526-64.881,49.992
				c-8.004-0.478-16.524-3.665-23.482-7.827c-12.237-7.317-13.308-13.592-10.813-27.832c2.146-12.263,3.308-24.783,3.801-37.232
				c1.13-28.526,13.928-41.435,42.653-42.11c18.534-0.436,36.047,3.694,52.507,12.003c5.297,2.674,11.139,6.342,8.449,13.71
				c-2.693,7.379-8.257,11.938-16.72,10.271c-7.965-1.568-15.833-3.657-23.694-5.708c-19.006-4.957-41.03,11.576-41.39,31.158
				c-0.282,15.277,13.939,24.308,27.619,17.807c9.293-4.418,18.671-8.796,28.363-12.184
				C1499.174,1061.596,1504.987,1062.012,1511.711,1061.312z"/>
			<path fill-rule="evenodd" clip-rule="evenodd" d="M1292.156,515.661c-0.068-21.907,13.333-43.235,35.715-59.174
				c4.998-3.559,12.041-5.708,18.199-5.841c9.922-0.212,14.214,8,8.301,15.941c-5.91,7.937-13.961,14.241-20.514,21.749
				c-4.194,4.804-8.025,10.187-10.725,15.919c-1.279,2.718-0.762,8.199,1.186,9.997c2.058,1.899,7.449,2.266,10.222,0.916
				c7.762-3.783,15.354-8.235,22.202-13.481c6.913-5.299,12.703-12.041,19.291-17.8c2.775-2.426,6.35-5.593,9.531-5.562
				c7.135,0.07,15.634,0.022,20.848,3.794c3.057,2.21,2.441,12.186,0.628,17.737c-2.15,6.584-6.458,13.077-11.415,18.021
				c-18.259,18.211-39.764,31.411-65.053,37.423c-6.224,1.48-13.199,1.722-19.489,0.611
				C1296.896,553.41,1291.167,542.567,1292.156,515.661z"/>
			<path fill-rule="evenodd" clip-rule="evenodd" d="M882.665,60.951c-6.238,1.767-10.283,3.746-14.414,3.943
				c-22.448,1.07-41.941-6.064-57.135-22.907c-7.284-8.074-7.876-17.349-1.111-26.763c9.806-13.644,17.947-27.337,18.731-44.948
				c0.5-11.238,10.486-15.565,19.922-16.809c25.881-3.412,50.593,0.441,72.185,16.343c13.372,9.848,18.413,29.529,12.194,44.876
				c-4.9,12.089-13.995,16.743-29.232,14.644c-0.858-9.091-0.934-18.46-2.756-27.477c-4.353-21.538-21.275-28.154-39.302-15.813
				c-21.862,14.968-31.603,47.768,3.133,65.246C870.138,53.932,875.231,56.898,882.665,60.951z"/>
			<path fill-rule="evenodd" clip-rule="evenodd" d="M297.521,1091.357c-5.307,1.244-10.594,3.458-15.922,3.561
				c-19.599,0.377-36.977-6.137-51.344-19.506c-10.423-9.7-11.946-20.587-3.121-31.823c10.473-13.335,18.755-26.752,19.585-44.485
				c0.44-9.425,8.69-14.196,17.642-15.694c25.957-4.346,50.106,1.879,71.659,15.871c21.557,13.996,20.513,48.35-0.714,60.121
				c-10.245,5.681-16.701,1.934-16.713-9.614c-0.004-4.695,0.259-9.482-0.529-14.067c-1.734-10.085-4.667-19.958-15.337-24.178
				c-10.541-4.169-19.88,0.327-27.845,6.66c-24.799,19.724-20.819,51.896,7.844,65.447c4.71,2.226,9.674,3.916,14.521,5.854
				C297.337,1090.121,297.43,1090.738,297.521,1091.357z"/>
			<path fill-rule="evenodd" clip-rule="evenodd" d="M105.454,984.77c-17.975-0.989-31.242-23.159-23.424-40.451
				c2.648-5.856,6.585-11.449,11.036-16.108c11.365-11.896,20.61-24.939,26.65-40.355c2.128-5.434,5.364-10.66,9.044-15.214
				c9.048-11.195,25.275-13.389,33.34-1.927c11.306,16.07,20.155,34.166,27.751,52.358c2.079,4.98-2.846,14.257-6.827,19.986
				c-3.523,5.069-9.893,8.491-15.546,11.685c-14.127,7.979-28.438,15.664-42.933,22.953
				C118.52,980.727,111.837,982.452,105.454,984.77z M107.567,947.104c-0.892,8.373,4.205,12.697,10.934,9.531
				c4.876-2.295,10.462-5.571,12.939-9.978c5.957-10.599,12.987-16.852,26.072-15.318c3.081,0.361,8.661-3.657,9.599-6.727
				c0.936-3.064-1.51-8.539-4.229-11.071c-6.533-6.083-15.378-7.72-22.375-2.118c-10.604,8.489-20.011,18.515-29.579,28.231
				C108.898,941.713,108.363,945.244,107.567,947.104z"/>
			<path fill-rule="evenodd" clip-rule="evenodd" d="M688.314,302.987c0.229-2.803-0.175-5.848,0.785-8.374
				c10.44-27.473,24.092-52.954,48.651-70.503c4.975-3.555,12.372-5.861,18.322-5.293c5.65,0.539,13.333,4.392,15.593,9.007
				c2.29,4.676,1.312,14.474-2.22,17.819c-10.497,9.944-22.311,18.935-34.831,26.188c-12.446,7.209-18.814,17.165-19.941,30.699
				c-1.016,12.226,6.168,18.127,18.202,15.837c24.59-4.68,43.115-18.735,58.708-37.628c3.405-4.124,7.9-8.22,12.755-10.085
				c8.558-3.288,14.818,3.097,12.695,12.034c-0.567,2.388-1.635,4.78-2.978,6.84c-18.979,29.125-44.625,48.085-80.223,50.348
				c-15.471,0.984-29.013-5.659-39.133-17.044c-4.354-4.899-5.551-12.604-8.183-19.034
				C687.116,303.527,687.715,303.257,688.314,302.987z"/>
			<path fill-rule="evenodd" clip-rule="evenodd" d="M536.165-22.688c14.192,1.377,26.237,2.037,29.174,17.838
				c0.427,2.297,4.771,4.442,7.718,5.604c23.451,9.243,33.363,23.832,31.623,49.2c-0.325,4.739-4.567,12.901-7.277,13.016
				c-5.622,0.24-13.076-2.397-16.755-6.537c-4.982-5.604-7.459-13.594-10.416-20.804C565.306,23.614,556.494,15.35,545,10.437
				c-5.092-2.176-12.066-3.315-17.008-1.576c-5.557,1.955-11.997,6.893-13.848,12.044c-1.334,3.712,3.05,11.182,6.939,14.709
				c7.821,7.093,17.059,12.62,25.685,18.831c3.298,2.375,6.717,4.632,9.742,7.325c10.647,9.479,8.338,19.921-5.258,24.345
				c-14.292,4.652-26.737-0.627-31.953-14.774c-4.489-12.174-11.05-21.622-22.192-29.077c-5.249-3.512-8.972-12.183-9.757-18.938
				c-2.259-19.412,10.68-36.933,29.687-42.215C523.91-20.799,531.065-21.7,536.165-22.688z"/>
			<path fill-rule="evenodd" clip-rule="evenodd" d="M1304.607,1033.354c12.464,0.818,25.379,1.114,27.465,18.487
				c0.198,1.644,4.093,3.245,6.535,4.158c24.615,9.203,34.656,24.376,33.294,50.108c-0.371,6.992-2.905,13.525-9.856,13.785
				c-4.794,0.179-11.347-3.391-14.315-7.372c-4.942-6.628-7.795-14.86-11.243-22.543c-5.569-12.405-14.876-21.054-27.514-25.193
				c-5.185-1.698-12.013-1.583-17.124,0.315c-13.875,5.152-15.575,16.101-4.467,25.845c5.852,5.132,12.44,9.43,18.755,14.022
				c3.538,2.573,7.344,4.796,10.771,7.501c6.521,5.148,15.028,9.678,13.401,19.661c-1.349,8.264-9.27,9.255-16.084,10.415
				c-9.939,1.69-18.672-0.349-24.904-9.042c-0.546-0.76-1.153-1.545-1.433-2.415c-4.746-14.747-12.89-26.462-26.457-34.984
				c-7.596-4.772-8.602-14.172-7.478-22.952c2.932-22.916,16.237-35.817,40.006-38.953
				C1297.365,1033.747,1300.815,1033.645,1304.607,1033.354z"/>
			<path fill-rule="evenodd" clip-rule="evenodd" d="M191.274,349.79c-31.038,0.537-39.433-13.005-33.947-39.084
				c5.518-26.237,22.306-40.964,43.309-53.155c16.891-9.805,34.667-7.087,47.646,7.146c2.268,2.488,4.272,8.568,2.938,10.254
				c-2.388,3.021-7.458,5.591-11.315,5.467c-10.533-0.338-20.995-2.861-31.529-3.213c-8.983-0.301-13.115,4.823-12.552,13.681
				c0.294,4.653,0.948,9.373,2.182,13.859c3.132,11.389,13.092,15.781,26.305,11.489c6.808-2.211,13.246-5.577,20.067-7.73
				c4.623-1.459,10.129-3.376,14.33-2.098c5.359,1.632,12.119,5.358,13.93,9.909c1.548,3.894-1.499,12.749-5.194,14.991
				c-9.918,6.019-20.896,11.49-32.147,13.824C219.482,348.411,203.042,348.664,191.274,349.79z"/>
			<path fill-rule="evenodd" clip-rule="evenodd" d="M1108.748,1082.329c0.277,14.22-3.135,19.081-13.956,17.615
				c-3.927-0.532-8.6-3.87-10.77-7.297c-4.307-6.805-6.896-14.67-10.584-21.899c-7.505-14.711-18.429-25.279-35.764-26.6
				c-8.852-0.675-16.44,3.332-19.882,11.394c-3.451,8.086,2.705,13.61,8.517,18.026c10.207,7.754,21.236,14.496,30.959,22.789
				c4.541,3.874,10.612,11.852,9.251,15.346c-1.979,5.084-9.571,9.354-15.617,11.196c-12.063,3.673-22.723-1.813-27.202-13.771
				c-4.88-13.025-11.519-23.637-23.861-31.239c-4.66-2.87-7.738-10.62-8.776-16.624c-3.05-17.632,9.101-38.04,26.397-42.577
				c11.479-3.011,23.933-3.305,35.912-3.044c7.932,0.173,13.323,5.665,15.354,14.21c0.642,2.701,4.12,5.682,6.969,6.755
				C1098.795,1045.301,1108.277,1058.15,1108.748,1082.329z"/>
			<path fill-rule="evenodd" clip-rule="evenodd" d="M614.531,175.346c9.101,2.549,20.303,4.367,30.324,8.835
				c11.839,5.279,13.878,15.631,7.259,26.583c-6.064,10.034-13.796,10.753-25.547,3.625c-8.702-5.279-17.638-11.279-27.281-13.639
				c-14.772-3.617-28.565,0.947-39.271,12.444c-8.573,9.207-18.701,14.977-31.203,17.624c-13.178,2.792-14.971,8.494-7.741,19.658
				c7.368,11.378,5.403,33.516-3.821,43.038c-5.119,5.286-14.018,5.892-20.694,1.207c-8.716-6.118-12.562-15.012-11.78-25.208
				c2.137-27.872,10.487-52.169,39.243-63.967c18.755-7.695,37.073-16.537,56.103-23.443
				C590.224,178.436,601.426,177.798,614.531,175.346z"/>
			<path fill-rule="evenodd" clip-rule="evenodd" d="M129.876,135.009c19.936-0.456,34.442,10.009,46.91,23.895
				c6.866,7.646,13.09,15.933,18.943,24.388c1.885,2.725,3.322,7.944,1.95,10.137c-1.425,2.276-6.636,3.443-9.953,3.057
				c-14.164-1.65-28.521-2.582-37.67-16.788c-3.732-5.796-10.115-10.218-16.043-14.123c-2.811-1.852-8.539-2.63-10.854-0.974
				c-2.529,1.811-4.489,7.667-3.438,10.584c2.584,7.166,6.494,14.038,10.877,20.326c5.839,8.378,12.833,15.942,18.946,24.144
				c4.334,5.815,1.508,10.668-3.409,14.51c-9.419,7.359-24.505,6.096-32.379-2.897c-13.685-15.629-22.653-33.629-25.935-54.236
				c-3.682-23.122,8.966-38.208,34.574-41.473C124.871,135.244,127.382,135.187,129.876,135.009z"/>
			<path fill-rule="evenodd" clip-rule="evenodd" d="M927.932,357.767c-16.255-8.475-31.098-2.29-46.246,9.229
				c-9.344,7.106-27.604,1.964-33.357-6.283c-5.567-7.98-2.761-21.151,5.104-31.169c5.905-7.521,11.37-15.764,15.15-24.499
				c7.873-18.192,22.711-26.971,40.399-31.961c10.811-3.05,21.733,2.286,24.561,10.483c3.208,9.304-2.301,22.487-12.239,26.57
				c-10.661,4.38-21.805,7.596-32.775,11.206c-9.534,3.137-15.943,9.64-20.008,18.544c-0.792,1.734-0.391,4.013-0.541,6.041
				c2.017,0.012,4.612,0.852,5.959-0.092c14.678-10.277,31.125-13.267,48.684-14.362c6.465-0.404,12.583-6.389,18.858-9.829
				c3.799-2.083,7.502-4.368,11.415-6.208c6.341-2.979,12.656-1.467,15.341,4.465c1.979,4.375,2.572,11.673,0.188,15.316
				C959.612,348.688,946.415,356.047,927.932,357.767z"/>
			<path fill-rule="evenodd" clip-rule="evenodd" d="M1560.443,106.478c5.249,0.722,10.508,1.377,15.744,2.18
				c16.641,2.554,33.314,4.929,49.884,7.884c5.42,0.966,11.124,2.601,15.716,5.491c12.004,7.552,11.226,23.612-0.232,31.247
				c-16.496,10.992-31.724,10.783-46.871-2.347c-5.644-4.891-11.829-9.246-18.16-13.22c-3.615-2.269-7.9-3.898-12.099-4.721
				c-8.375-1.639-14.019,2.547-16.086,10.724c-1.834,7.254-4.209,14.379-5.872,21.668c-1.773,7.781-1.942,15.306,3.677,22.221
				c1.295,1.594,0.738,7.195-0.74,8.121c-7.508,4.701-15.622,8.252-24.58,3.151c-7.586-4.32-12.618-13.954-10.664-23.231
				c1.525-7.236,4.571-14.184,7.285-21.126c3.177-8.127,7.146-15.962,10.03-24.184
				C1534.236,111.057,1540.206,106.595,1560.443,106.478z"/>
			<path fill-rule="evenodd" clip-rule="evenodd" d="M890.913,573.252c0.81-20.645,6.224-39.331,17.28-56.288
				c7.355-11.283,17.302-18.836,30.719-21.278c22.212-4.042,43.765-2.261,63.729,8.933c17.942,10.058,23.43,26.649,15.783,44.717
				c-2.358,5.574-5.607,7.873-10.391,2.915c-4.062-4.21-8.263-8.617-11.037-13.685c-11.481-20.984-37.517-23.527-53.363-19.894
				c-11.598,2.659-13.851,8.557-13.207,20.548c0.395,7.354-2.396,15.042-4.624,22.315c-1.53,5-5.565,9.34-6.574,14.358
				c-0.802,3.986,0.854,8.702,2.271,12.799c0.74,2.139,3.697,3.402,5.001,5.473c4.217,6.695,6.984,14.663,1.458,20.957
				c-5.386,6.133-12.157,1.313-17.802-2.019C894.713,603.987,891.592,588.936,890.913,573.252z"/>
			<path fill-rule="evenodd" clip-rule="evenodd" d="M1676.688,1069.325c-7.785,10.085-15.848,13.077-24.84,9.831
				c-8.121-2.932-13.758-11.657-13.529-21.562c0.079-3.386,0.438-6.983,1.667-10.088c6.429-16.235,12.435-32.717,20.231-48.291
				c2.654-5.302,9.87-11.178,15.402-11.604c12.83-0.988,25.939,0.847,38.87,2.18c11.46,1.183,22.888,2.927,34.221,5.012
				c6.977,1.283,14.407,2.474,20.48,5.806c13.387,7.345,12.467,23.773,0.003,32.244c-19.277,13.101-34.863,3.699-50.725-6.47
				c-6.543-4.196-12.629-9.469-19.689-12.415c-12.846-5.359-19.494-1.343-22.801,11.896c-1.21,4.841-2.616,9.644-4.167,14.386
				C1668.409,1050.64,1667.882,1060.547,1676.688,1069.325z"/>
			<path fill-rule="evenodd" clip-rule="evenodd" d="M1220.099,1017.27c-8.326-2.373-16.933-4.073-24.866-7.387
				c-4.282-1.789-8.425-5.725-10.859-9.761c-5.756-9.541-3.354-14.305,7.51-16.06c8.92-1.442,18.269-1.122,26.816-3.646
				c5.216-1.54,10.977-6.093,13.489-10.872c4.596-8.741,7.487-18.515,10.059-28.133c1.407-5.264,1.404-11.171,0.796-16.649
				c-0.994-8.94-5.88-11.888-14.424-9.153c-6.233,1.994-12.066,5.623-18.398,6.802c-5.471,1.019-11.984,1.03-16.979-1.051
				c-7.87-3.279-9.34-11.431-3.564-17.847c12.219-13.575,27.566-21.297,46.119-21.476c2.009-0.019,4.639,1.516,5.952,3.154
				c5.259,6.561,10.102,13.454,15.119,20.208c9.214,12.404,13.562,26.044,9.69,41.396c-3.738,14.828-7.45,29.697-12.092,44.255
				C1248.733,1009.027,1238.269,1016.223,1220.099,1017.27z"/>
			<path fill-rule="evenodd" clip-rule="evenodd" d="M1737.435,460.615c-3.983,0.62-7.392,0.116-8.993,1.584
				c-6.023,5.521-11.499,3.919-16.745-0.517c-4.049-3.423-7.531-7.508-11.349-11.213c-8.742-8.49-21.609-9.499-28.924,0.133
				c-7.586,9.989-13.072,21.823-17.993,33.477c-2.366,5.605,0.971,10.986,8.273,11.754c1.553,0.164,3.749-0.124,4.525,0.771
				c3.222,3.709,8.011,7.653,8.3,11.785c0.213,3.044-5.412,9.025-8.864,9.366c-16.439,1.626-35.268-2.458-43.157-17.952
				c-5.427-10.658-5.042-33,10.086-44.264c4.406-3.281,7.596-9.182,9.597-14.535c7.812-20.911,20.209-29.991,42.562-28.888
				c16.683,0.823,31.994,6.129,44.42,17.752C1738.38,438.482,1741.954,448.865,1737.435,460.615z"/>
			<path fill-rule="evenodd" clip-rule="evenodd" d="M510.514,589.736c7.206-0.998,15.321,0.777,19.522,8.908
				c2.341,4.528,3.929,11.582,1.945,15.537c-1.609,3.209-9.056,4.773-13.901,4.747c-5.756-0.031-11.489-3.669-17.251-3.724
				c-9.083-0.086-18.677,0.014-27.144,2.802c-9.165,3.019-13.351,13.107-10.847,21.467c2.588,8.64,9.823,12.146,18.066,12.225
				c7.369,0.071,14.912-0.877,22.087-2.591c6.426-1.536,12.854-2.005,15.499,4.262c2.157,5.115,1.661,11.693,1.028,17.478
				c-0.273,2.502-3.46,5.283-5.997,6.847c-24.111,14.874-55.781,17.305-75.444-13.205c-5.085-7.889-8.447-17.663-9.828-26.982
				c-2-13.491,5.823-23.036,17.287-29.538C465.213,596.805,486.618,591.651,510.514,589.736z"/>
			<path fill-rule="evenodd" clip-rule="evenodd" d="M175.887,425.25c-2.031-2.724-3.287-4.406-4.535-6.081
				c-8.892,9.39-14.647,9.326-23.875-0.358c-18.37-19.276-34.176-16.737-45.822,7.388c-1.896,3.927-3.761,7.876-5.435,11.901
				c-4.885,11.748-2.995,15.909,8.786,20.069c5.779,2.041,10.862,6.006,9.01,12.196c-1.069,3.575-6.377,7.426-10.398,8.302
				c-16.175,3.528-33.657-4.51-40.282-17.401c-7.285-14.176-3.49-30.582,9.25-43.355c4.079-4.089,8.738-9.141,9.807-14.425
				c4.804-23.749,27.086-31.835,47.576-29.451c15.281,1.777,29.166,7.029,40.446,17.775
				C180.354,401.28,182.404,411.913,175.887,425.25z"/>
			<path fill-rule="evenodd" clip-rule="evenodd" d="M464.885,1005.656c-3.522-0.458-6.204-0.277-8.416-1.211
				c-3.947-1.667-10.984-4.5-10.769-5.973c0.687-4.688,3.042-10.562,6.729-13.058c6.05-4.097,13.912-5.395,20.541-8.788
				c10.19-5.216,20.706-10.25,29.782-17.088c14.802-11.153,38.016-9.581,48.072,5.844c3.05,4.679,3.014,12.57,1.842,18.485
				c-1.361,6.87-6.508,12.946-8.167,19.813c-1.351,5.597,0.052,11.848,0.157,17.81c0.044,2.509,0.842,5.65-0.332,7.426
				c-6.528,9.878-14.999,17.647-26.71,20.971c-9.675,2.746-18.071-1.611-22.427-12.086c-3.518-8.459,0.61-14.394,7.753-18.779
				c0.267-0.164,0.553-0.31,0.781-0.517c5.03-4.547,15.359-7.392,10.819-15.707c-1.882-3.447-12.705-3.234-19.269-2.622
				C484.757,1001.158,474.403,1003.855,464.885,1005.656z"/>
			<path fill-rule="evenodd" clip-rule="evenodd" d="M1646.196,218.662c2.86-10.762,4.651-21.967,8.867-32.169
				c4.74-11.47,14.174-15.592,26.216-12.734c26.326,6.25,49.786,18.356,70.134,36.28c2.093,1.844,4.521,3.919,5.402,6.385
				c1.361,3.803,3.324,9.089,1.731,11.819c-1.971,3.374-7.459,6.831-11.176,6.578c-6.568-0.448-13.542-2.651-19.255-5.988
				c-7.768-4.535-14.031-11.675-21.854-16.074c-5.467-3.075-13.995-6.51-18.427-4.303c-7.185,3.576-3.62,12.234-1.237,18.636
				c3.05,8.196,7.136,16.011,10.084,24.238c3.769,10.513,0.275,14.718-10.894,14.062
				C1662.919,264.049,1648.085,245.872,1646.196,218.662z"/>
			<path fill-rule="evenodd" clip-rule="evenodd" d="M1018.697,648.954c5.407,1.349,10.898,2.433,16.205,4.098
				c14.241,4.469,19.566,15.491,14.397,29.28c-4.121,10.994-17.814,15.594-29.96,10.066c-21.592-9.829-33.523-46.358-21.422-66.712
				c7.833-13.173,20.505-16.903,34.854-15.051c17.729,2.29,33.846,8.569,47.009,21.28c9.421,9.099,12.411,20.037,9.566,32.574
				c-1.644,7.244-6.093,13.416-13.555,13.685c-4.823,0.174-11.146-2.712-14.37-6.368c-4.081-4.629-6.244-11.25-8.263-17.335
				c-4.112-12.396-17.533-18.933-29.505-13.805c-2.874,1.231-5.749,2.461-8.623,3.692
				C1016.253,645.89,1017.475,647.422,1018.697,648.954z"/>
			<path fill-rule="evenodd" clip-rule="evenodd" d="M793.029,480.388c16.348,1.297,31.93,4.021,46.099,12.318
				c18.132,10.619,26.115,28.998,20.464,46.805c-6.103,19.232-28.773,35.025-47.458,33.485c-6.355-0.523-9.083-4.097-6.727-9.107
				c2.671-5.678,7.143-10.646,11.417-15.396c4.977-5.531,11.309-9.953,15.712-15.856c4.067-5.454,3.457-11.164-4.255-14.162
				c-15.425-5.994-30.633-12.567-46.185-18.2c-11.507-4.168-18.795,1.648-18.729,13.958c0.011,2.189,0.098,4.379,0.188,6.568
				c0.631,15.469-11.789,24.854-26.706,20.13c-6.367-2.016-7.288-7.09-6.875-12.768c1.319-18.206,16.86-37.954,34.563-42.7
				C773.82,482.976,783.518,482.03,793.029,480.388z"/>
			<path fill-rule="evenodd" clip-rule="evenodd" d="M854.45,432.75c1.178,13.684,8.02,22.839,16.12,30.664
				c6.207,5.996,17.929,1.479,22.312-7.974c2.351-5.07,2.928-11.065,5.736-15.794c3.342-5.63,8.23-10.338,12.421-15.469
				c1.607-1.968,4.854-4.918,4.37-5.819c-1.256-2.339-3.935-4.762-6.472-5.369c-3.858-0.921-8.643,0.874-11.995-0.699
				c-4.194-1.969-9.185-5.569-10.506-9.566c-2.071-6.263,4.162-8.742,9.086-9.235c15.837-1.587,31.266,0.579,45.355,8.394
				c8.896,4.933,13.175,13.423,10.287,23.001c-3.008,9.978-6.999,20.28-13.104,28.568c-11.424,15.51-26.605,27.311-44.456,35.024
				c-14.033,6.063-28.847,3.319-38.294-6.297c-9.955-10.133-12.883-27.655-6.628-41.037
				C849.923,438.487,852.019,436.233,854.45,432.75z"/>
			<path fill-rule="evenodd" clip-rule="evenodd" d="M1104.881,228.45c12.597,0.037,19.131,4.538,19.999,13.776
				c0.992,10.561-5.447,19.217-16.79,20.971c-7.354,1.135-14.945,0.811-22.434,0.971c-30.683,0.656-47.603,22.386-40.88,49.106
				c0.756,3.003,0.837,6.183,1.143,9.289c0.806,8.176,3.546,16.912-7.194,21.337c-13.836,5.702-29.201,3.992-35.311-4.849
				c-1.934-2.799-2.81-6.951-2.644-10.411c0.172-3.577,1.729-7.322,3.489-10.552c10.287-18.875,20.176-38.019,31.568-56.215
				c4.589-7.332,11.659-14.613,19.337-18.194c15.638-7.292,32.456-12.055,48.787-17.86
				C1104.262,226.696,1104.571,227.573,1104.881,228.45z"/>
			<path fill-rule="evenodd" clip-rule="evenodd" d="M1460.03,742.247c-20.838-0.139-28.562-13.632-18.312-31.853
				c9.915-17.623,19.397-35.5,29.756-52.857c3.589-6.012,8.378-12.078,14.104-15.895c16.355-10.903,34.771-17.458,54.43-18.214
				c6.32-0.243,15.552,2.75,18.485,7.397c2.923,4.632,1.969,15.081-1.594,19.528c-3.91,4.881-12.538,6.938-19.479,8.204
				c-9.426,1.718-19.499,0.235-28.765,2.398c-21.514,5.024-31.8,21.93-28.124,43.71c0.676,4.005,1.067,8.057,1.708,12.068
				C1485.157,734.986,1478.745,742.371,1460.03,742.247z"/>
			<path fill-rule="evenodd" clip-rule="evenodd" d="M1299.22,224.401c0.83,10.791,1.678,21.581,2.477,32.374
				c0.184,2.494,0.329,5.002,0.269,7.5c-0.529,21.743-10.106,29.853-31.262,25.295c-21.346-4.599-38.732-17.337-55.488-30.339
				c-9.605-7.453-4.484-36.604,6.856-41.701c2.781-1.251,8.887,0.617,11.076,3.131c6.323,7.263,11.323,15.663,17.037,23.476
				c10.146,13.871,18.318,14.687,30.94,3.295c7.924-7.151,7.316-12.822-0.598-20.362c-5.758-5.484-11.443-11.655-14.993-18.624
				c-2.186-4.291-2.139-11.875,0.376-15.694c1.866-2.833,9.518-3.287,14.241-2.551
				C1296.192,192.702,1302.053,203.025,1299.22,224.401z"/>
			<path fill-rule="evenodd" clip-rule="evenodd" d="M422.893,815.4c-1.162-7.001-3.081-12.665-2.856-18.242
				c0.893-22.195,21.512-46.556,43.036-51.7c12.04-2.877,26.444,1.708,30.937,12.021c3.848,8.831,10.159,12.496,18.328,15.257
				c10.26,3.467,13.347,9.132,13.078,20.889c-0.229,9.97-6.23,13.657-14.862,14.747c-10.505,1.329-17.583,7.311-22.968,15.994
				c-6.27,10.109-15.668,14.723-27.139,12.197c-4.465-0.984-10.003-5.041-11.521-9.038c-1.291-3.399,1.401-9.694,4.3-12.956
				c3.812-4.288,9.497-6.946,14.481-10.142c4.468-2.864,9.318-5.183,13.563-8.331c5.199-3.858,11.633-7.8,6.553-15.893
				c-5.086-8.102-15.68-11.181-22.705-5.919c-5.934,4.446-10.739,10.376-16.211,15.469c-5.696,5.302-11.693,10.282-17.362,15.612
				C429.01,807.747,426.956,810.64,422.893,815.4z"/>
			<path fill-rule="evenodd" clip-rule="evenodd" d="M899.123,922.204c10.358-0.284,16.597,2.608,19.29,11.218
				c1.396,4.466,3.706,8.672,4.842,13.187c1.985,7.889,6.145,13.278,14.076,16.005c5.05,1.736,10.331,4.277,8.548,11.331
				c-1.799,7.117-7.624,7.492-13.438,7.069c-8.853-0.646-15.646-2.684-17.782-13.78c-2.301-11.947-13.241-16.587-24.944-12.408
				c-10.74,3.834-17.432,11.91-21.101,22.443c-2.877,8.261-4.755,16.895-7.984,25.002c-4.515,11.333-11.469,15.37-20.616,13.198
				c-11.501-2.729-20.658-12.589-19.545-22.966c0.708-6.611,2.755-13.73,6.307-19.272c15.028-23.454,36.776-38.878,62.382-49.057
				C892.856,922.702,897.095,922.582,899.123,922.204z"/>
			<path fill-rule="evenodd" clip-rule="evenodd" d="M565.149,1088.962c0.893-9.65,0.327-19.724,2.986-28.86
				c5.363-18.432,17.759-31.402,36.17-37.703c15.759-5.394,29.233,0.411,35.114,15.771c2.43,6.345,5.848,8.454,12.056,9.382
				c13.511,2.019,17.15,6.173,17.989,18.514c0.776,11.398-1.873,15.643-13.067,17.695c-10.25,1.879-17.341,6.983-23.25,15.54
				c-6.651,9.631-14.997,18.512-28.548,14.523c-4.47-1.315-10.563-5.004-11.424-8.664c-1.043-4.439,1.255-11.448,4.64-14.743
				c5.688-5.537,13.373-9.026,20.227-13.362c2.377-1.502,4.993-2.709,7.135-4.489c5.144-4.273,12.423-7.988,6.938-16.583
				c-5.233-8.199-15.222-10.804-22.919-5.9c-3.374,2.15-6.187,5.21-9.144,7.975c-8.627,8.068-17.272,16.12-25.738,24.356
				c-2.084,2.027-3.516,4.727-5.249,7.117C567.76,1089.342,566.455,1089.152,565.149,1088.962z"/>
			<path fill-rule="evenodd" clip-rule="evenodd" d="M1405.938,856.888c-8.512-30.164,14.588-64.251,42.65-67.177
				c14.89-1.553,23.653,6.494,29.51,18.517c2.671,5.483,6.098,7.561,11.932,8.542c12.929,2.173,16.816,7.622,17.058,20.465
				c0.169,8.968-3.625,14.481-12.615,15.545c-11.479,1.356-19.565,7.262-25.528,16.96c-6.265,10.19-15.934,14.197-27.375,11.784
				c-4.285-0.904-10.33-4.371-11.196-7.782c-1.051-4.131,1.39-10.403,4.407-13.994c3.674-4.371,9.472-6.992,14.444-10.224
				c4.454-2.895,9.278-5.27,13.499-8.456c5.045-3.808,12.191-7.295,7.013-15.625c-5.562-8.945-15.47-11.349-23.556-6.101
				c-1.046,0.678-2.058,1.445-2.963,2.298C1431.104,833.067,1419.013,844.517,1405.938,856.888z"/>
			<path fill-rule="evenodd" clip-rule="evenodd" d="M437.854,212.174c-2.536,3.24-4.302,4.737-5.102,6.64
				c-4.969,11.829-11.429,14.896-23.609,10.091c-6.957-2.744-13.345-6.946-20.325-9.611c-10.616-4.054-14.847-1.006-14.115,10.452
				c0.635,9.96,2.653,19.823,3.732,29.765c0.773,7.124,1.579,14.326,1.347,21.46c-0.389,11.944-9.976,17.036-20.334,11.303
				c-13.476-7.459-22-28.867-17.075-43.356c1.908-5.614,5.197-10.906,6.203-16.634c0.901-5.144,0.68-11.102-1.082-15.963
				c-3.232-8.925-2.181-16.178,6.246-20.799c14.911-8.177,31.379-12.039,47.984-9.128c5.957,1.044,11.867,8.453,15.637,14.341
				C422.044,208.051,425.946,214.688,437.854,212.174z"/>
			<path fill-rule="evenodd" clip-rule="evenodd" d="M1340.709,49.892c-7.929-3.432-13.174-5.31-18.028-7.915
				c-4.894-2.625-6.098-6.763-1.089-10.28c14.184-9.959,29.521-16.603,47.396-13.01c13.096,2.632,15.961,9.299,11.068,21.434
				c-1.491,3.698-1.281,9.139,0.327,12.833c4.83,11.086,3.36,21.203-7.393,27.273c-13.773,7.775-28.37,14.152-42.87,20.55
				c-3.808,1.68-8.553,1.502-12.887,1.667c-9.271,0.353-15.62-4.333-18.737-12.764c-3.198-8.651-0.565-16.512,6.74-21.609
				c6.32-4.411,13.745-7.239,20.688-10.754C1330.009,55.25,1334.105,53.208,1340.709,49.892z"/>
			<path fill-rule="evenodd" clip-rule="evenodd" d="M998.457,841.351c-30.198-3.163-55.925-5.524-81.549-8.708
				c-10.234-1.272-18.47-11.72-18.352-22.04c0.092-7.958,2.404-16.088,12.101-15.804c14.45,0.424,29.655,0.124,43.053,4.591
				c14.539,4.848,28.776,4.409,43.286,5.037c5.606,0.242,11.257-0.051,16.864-0.434c9.282-0.635,15.406,4.185,19.965,11.438
				c5.822,9.264,2.939,18.56-7.539,21.27C1015.808,839.411,1004.867,840.333,998.457,841.351z"/>
			<path fill-rule="evenodd" clip-rule="evenodd" d="M380.887,397.562c5.567,0.615,11.304,0.577,16.671,1.966
				c16.211,4.192,25.114,21.587,18.351,36.819c-1.757,3.958-6.633,7.654-10.894,9.167c-13.848,4.92-29.499-0.481-37.48-13.217
				c-7.242-11.554-17.441-18.985-28.67-26.099c-9.041-5.727-17.728-12.764-24.685-20.843c-9.519-11.054-8.25-27.603,1.018-39.021
				c5.41-6.665,12.685-9.867,20.767-7.554c8.072,2.31,11.309,9.468,11.789,17.524c0.372,6.24-0.637,12.658,0.422,18.744
				C351.813,395.952,360.085,399.314,380.887,397.562z"/>
			<path fill-rule="evenodd" clip-rule="evenodd" d="M185.043,748.56c-0.38-17.386,8.927-30.403,18.515-43.293
				c6.886-9.26,13.741-18.544,20.743-27.716c9.694-12.698,22.277-19.844,38.589-19.383c9.88,0.279,14.969,5.323,14.979,15.284
				c0.008,8.784-2.507,16.705-10.073,22.098c-6.615,4.715-13.143,9.606-20.094,13.78c-14.747,8.854-24.074,21.359-27.981,38.158
				c-1.48,6.358-2.806,13.308-6.404,18.444c-2.913,4.158-9.212,8.339-13.85,8.169c-4.039-0.148-9.041-5.716-11.435-10.086
				C185.63,759.633,185.928,753.772,185.043,748.56z"/>
			<path fill-rule="evenodd" clip-rule="evenodd" d="M1328.027,353.435c-9.614-9.776-11.296-18.393-5.96-29.725
				c8.678-18.429,27.991-30.319,48.163-28.942c13.353,0.912,26.988,1.282,39.889,4.408c21.924,5.311,30.849,22.778,23.327,43.986
				c-6.957,19.616-19.871,33.894-40.729,39.33c-4.354,1.134-9.083,0.819-13.64,1.171c-0.781-0.744-1.562-1.488-2.345-2.231
				c2.762-5.405,4.95-11.223,8.461-16.086c2.86-3.96,7.401-6.673,11.025-10.121c12.342-11.742,10.809-24.763-3.896-33.789
				c-12.113-7.436-36.803-5.821-47.09,3.851c-2.882,2.71-3.722,7.604-5.464,11.511
				C1336.947,343.122,1336.341,351.047,1328.027,353.435z"/>
			<path fill-rule="evenodd" clip-rule="evenodd" d="M1745.126,784.499c-0.473-12.271,5.067-24.369,14.265-35.385
				c8.99-10.766,17.715-21.815,25.728-33.317c8.331-11.959,19.247-19.073,33.652-18.799c5.504,0.104,12.711,2.644,15.986,6.652
				c4.984,6.103,6.22,14.904,0.121,21.639c-5.592,6.176-11.749,12.443-18.891,16.501c-20.694,11.758-34.683,27.578-39.315,51.735
				c-3.073,16.02-9.01,21.01-18.152,19.895c-8.587-1.047-12.979-8.864-13.391-23.848
				C1745.104,788.635,1745.126,787.695,1745.126,784.499z"/>
			<path fill-rule="evenodd" clip-rule="evenodd" d="M639.295,146.219c-2.792-8.976-4.594-18.418-8.565-26.836
				c-10.472-22.197-11.486-35.898,18.83-36.899c10.984-0.364,21.879-4.529,32.831-4.6c14.981-0.097,29.117,4.833,39.856,15.815
				c7.885,8.063,6.199,16.171-4.366,19.586c-7.99,2.583-16.906,2.851-25.437,3.066c-9.262,0.233-18.814-2.367-27.775-0.895
				c-13.669,2.244-15.401,10.447-6.942,21.237c4.681,5.97,8.549,13.008,11.003,20.175c2.646,7.725-2.032,13.894-10.335,14.179
				c-18.353,0.63-24.998-4.516-21.647-24.02C637.598,146.758,638.446,146.488,639.295,146.219z"/>
			<path fill-rule="evenodd" clip-rule="evenodd" d="M700.937,939.496c-1.641-12.505-2.709-24.611-5.015-36.477
				c-1.092-5.619-3.405-11.813-7.151-15.948c-10.872-11.996-22.766-14.355-33.392-1.854c-4.246,4.998-8.477,10.078-13.262,14.534
				c-9.623,8.959-19.282,9.292-27.34,1.51c-7.63-7.368-7.99-21.225-0.772-29.851c7.94-9.491,17.417-15.951,30.366-16.239
				c14.042-0.312,28.093-1.603,42.111-1.269c13.356,0.32,17.477,5.804,20.39,18.489c1.672,7.283,5.651,14.433,10.054,20.599
				c7.075,9.907,9.395,20.222,6.458,31.852C720.528,936.158,714.296,940.449,700.937,939.496z"/>
			<path fill-rule="evenodd" clip-rule="evenodd" d="M476.667,519.102c-0.115-13.199,6.239-23.113,16.093-31.105
				c2.648-2.148,5.879-3.561,8.69-5.527c9.713-6.79,9.25-14.602-1.306-19.897c-3.883-1.948-8.103-3.234-12.186-4.778
				c-2.042-0.772-4.157-1.359-6.178-2.181c-7.606-3.09-16.441-14.551-14.433-18.64c1.95-3.971,15.476-4.268,22.831-0.293
				c7.29,3.938,14.592,4.953,22.429,1.58c2.804-1.206,5.967-2.034,9.004-2.163c17.128-0.722,23.297,7.178,17.497,23.28
				c-3.892,10.806-6.545,21.003-2.559,32.633c2.698,7.869-1.337,14.323-10.021,15.894c-7.478,1.352-11.195,5.936-13.689,12.478
				c-1.551,4.068-3.462,8.025-5.511,11.872c-3.494,6.564-8.49,11.409-16.513,9.087c-8.043-2.327-13.422-7.701-14.127-16.617
				C476.542,522.86,476.667,520.976,476.667,519.102z"/>
			<path fill-rule="evenodd" clip-rule="evenodd" d="M894.737,896.321c-21.451-9.598-40.742-0.514-59.415,13.599
				c-3.708,2.803-11.011,3.144-15.703,1.641c-3.904-1.25-8.256-6.578-8.905-10.658c-0.466-2.918,4.186-8.503,7.726-9.877
				c12.41-4.812,21.653-13.011,30.309-22.748c3.679-4.139,4.48-7.354,3.293-12.375c-5.371-22.699-3.971-24.097,18.168-16.888
				c10.624,3.46,21.608,6.852,31.057,12.552c7.144,4.312,13.26,11.511,17.786,18.712c7.449,11.852,2.718,21.337-10.852,24.351
				C904.56,895.439,900.772,895.589,894.737,896.321z"/>
			<path fill-rule="evenodd" clip-rule="evenodd" d="M1419.205,37.855c4.583,1.917,9.138,3.115,12.885,5.553
				c5.834,3.795,11.43,4.56,17.645,1.444c2.229-1.118,4.765-2.983,6.9-2.679c7.447,1.06,16.134,1.102,21.625,5.19
				c3.066,2.282,2.349,12.312,0.519,17.933c-3.468,10.647-5.982,20.55-2.22,31.832c2.613,7.835-1.015,14.464-9.791,16.083
				c-7.433,1.371-11.3,5.791-13.808,12.364c-1.554,4.073-3.435,8.049-5.492,11.896c-3.479,6.511-8.294,11.58-16.433,9.118
				c-7.963-2.409-14.104-7.401-14.288-16.523c-0.312-15.461,6.093-27.797,18.716-36.775c6.178-4.393,15.645-6.766,14.39-16.48
				c-1.254-9.712-10.921-10.851-18.246-14.021c-5.972-2.586-12.441-4.585-17.564-8.37c-3.318-2.451-4.609-7.647-6.809-11.612
				C1411.047,41.229,1414.862,39.652,1419.205,37.855z"/>
			<path fill-rule="evenodd" clip-rule="evenodd" d="M637.301-4.195c-1.403-17.583,10.932-27.004,21.818-37.334
				c8.147-7.731,16.308-15.462,24.172-23.478c12.806-13.048,28.148-16.629,41.284-8.243c3.272,2.09,6.644,7.463,6.246,10.896
				c-0.398,3.431-5.224,6.617-8.589,9.311c-1.497,1.2-4.167,1.233-6.313,1.274c-9.913,0.191-14.827,4.932-17.333,14.79
				c-1.644,6.463-6.206,12.77-10.941,17.734c-8.995,9.43-9.095,16.147,0.21,25.333c2.763,2.728,5.244,7.808,4.719,11.346
				c-0.94,6.335-7.139,6.415-12.114,5.278c-11.234-2.568-22.412-5.467-33.452-8.768C638.021,11.259,637.404,3.427,637.301-4.195z"/>
			<path fill-rule="evenodd" clip-rule="evenodd" d="M1628.699,306.688c26.253,0.002,46.868,22.056,43.853,44.567
				c-0.582,4.343-5.791,10.098-10.06,11.459c-7.192,2.295-12.896-3.309-14.84-9.833c-2.658-8.917-8.841-10.995-16.343-10.242
				c-3.627,0.363-9.602,3.348-9.825,5.608c-0.347,3.518,2.647,8.061,5.459,10.984c2.426,2.521,7.13,2.767,9.802,5.161
				c2.738,2.454,5.926,6.365,5.798,9.511c-0.131,3.242-3.369,7.373-6.402,9.281c-7.165,4.509-19.167,2.706-25.21-3.327
				c-11.963-11.941-19.976-26.304-24.567-42.526c-2.001-7.067-0.09-12.755,6.494-16.847
				C1604.947,312.972,1617.514,307.031,1628.699,306.688z"/>
			<path fill-rule="evenodd" clip-rule="evenodd" d="M401.187,115.203c1.67,5.226,4.124,10.357,4.777,15.707
				c0.563,4.621,1.714,6.229,6.327,8.3c6.436,2.892,12.558,7.997,16.961,13.61c12.452,15.873,26.014,16.831,39.661,1.63
				c2.709-3.016,4.703-6.761,7.695-9.417c5.298-4.7,10.533-10.143,16.834-12.89c10.568-4.608,15.836-0.204,13.373,10.89
				c-2.005,9.028-4.837,18.225-9.222,26.308c-14.447,26.631-37.813,32.768-63.772,17.275c-11.257-6.719-22.388-13.734-33.041-21.362
				c-17.842-12.774-19.565-25.35-6.751-42.806c1.456-1.982,2.66-4.148,3.98-6.229C399.068,115.88,400.127,115.542,401.187,115.203z"
				/>
			<path fill-rule="evenodd" clip-rule="evenodd" d="M1412.758,960.423c-0.57,5.647-1.887,11.965-9.976,13.831
				c-7.95,1.834-13.15-2.047-15.158-9.013c-2.955-10.254-10.714-10.474-18.55-9.664c-2.834,0.292-7.2,3.755-7.493,6.178
				c-0.379,3.135,1.862,7.493,4.369,9.828c2.815,2.623,7.711,2.941,10.724,5.441c2.861,2.375,6.24,6.353,6.1,9.478
				c-0.136,3.037-3.882,6.992-7.035,8.618c-11.17,5.757-20.081,4.625-27.374-5.631c-8.233-11.581-14.975-24.369-21.136-37.222
				c-4.021-8.391-0.76-15.521,7.788-20.355c12.126-6.856,24.411-12.762,38.777-12.393
				C1394.186,920.043,1412.657,938.878,1412.758,960.423z"/>
			<path fill-rule="evenodd" clip-rule="evenodd" d="M67.689,268.385c25.667-0.05,42.289,14.796,45.233,36.095
				c1.043,7.55,0.28,15.041-7.991,18.069c-8.716,3.19-14.396-3.51-17.03-9.613c-4.181-9.687-11.546-9.788-19.265-8.957
				c-2.632,0.283-6.06,4.165-6.867,7.037c-0.672,2.393,1.195,6.613,3.31,8.407c2.978,2.528,7.761,2.916,10.769,5.423
				c2.825,2.354,5.968,6.264,5.987,9.507c0.019,3.218-2.979,7.49-5.895,9.485c-7.193,4.919-17.834,3.355-24.289-2.413
				c-13.351-11.932-21.075-27.156-24.457-44.376c-0.783-3.985,1.232-10.499,4.282-12.91
				C43.412,274.705,57.036,268.484,67.689,268.385z"/>
			<path fill-rule="evenodd" clip-rule="evenodd" d="M735.034,1012.232c-5.314-4.071-11.543-6.526-13.649-10.946
				c-4.205-8.825-1.387-17.951,5.123-25.094c3.046-3.343,7.709-5.179,11.517-7.871c5.327-3.767,11.117-7.144,15.568-11.781
				c2.358-2.455,4.03-7.78,3.038-10.848c-3.686-11.386,1.366-19.051,9.636-25.07c5.696-4.146,12.2-7.742,18.894-9.709
				c3.11-0.914,8.493,1.751,10.991,4.488c1.473,1.612,0.309,7.163-1.382,9.875c-9.818,15.754-9.99,15.647,2.599,29.265
				c9.648,10.437,7.497,21.317-6.467,24.746c-14.43,3.544-25.05,11.534-35.463,21.299
				C750.294,1005.409,742.928,1007.859,735.034,1012.232z"/>
			<path fill-rule="evenodd" clip-rule="evenodd" d="M1565.231,451.816c31.618-0.332,45.979,18.889,37.556,40.654
				c-1.459,3.77-4.739,7.442-8.141,9.731c-7.629,5.133-11.064,3.363-13.169-5.677c-3.28-14.087-13.9-20.138-27.663-15.434
				c-3.496,1.195-6.822,3.162-9.899,5.255c-11.647,7.924-11.87,11.297-2.212,21.831c2.734,2.982,5.379,6.148,7.488,9.584
				c6.308,10.28,4.018,14.574-8.049,15.546c-1.533,0.123-3.116-0.062-4.646-0.3c-14.403-2.23-26.366-16.96-28.797-35.405
				c-1.918-14.558,4.298-26.537,18.554-32.253C1541.217,459.349,1556.732,454.723,1565.231,451.816z"/>
			<path fill-rule="evenodd" clip-rule="evenodd" d="M263.971,161.021c19.102,3.624,38.181,14.075,52.943,31.735
				c4.96,5.935,3.979,12.775-0.629,19.08c-4.658,6.372-10.04,5.935-17.321,4.523c-6.817-1.322-14.845-0.037-21.526,2.363
				c-12.002,4.313-23.364,4.956-32.088-4.826c-9.331-10.462-13.707-23.172-8.173-37.377
				C241.338,165.844,248.884,160.897,263.971,161.021z"/>
			<path fill-rule="evenodd" clip-rule="evenodd" d="M372.271,531.768c-17.175,0.449-26.874-13.506-18.812-28.759
				c3.396-6.426,9.711-12.298,16.115-15.925c10.75-6.089,20.676-3.318,26.249,7.582c8.084,15.814,18.394,29.521,31.281,41.6
				c4.774,4.475,5.62,20.245,2.185,24.832c-4.583,6.119-20.767,10.049-28.634,6.955c-10.058-3.956-13.195-9.36-11.785-20.307
				C390.364,536.136,385.469,531.424,372.271,531.768z"/>
			<path fill-rule="evenodd" clip-rule="evenodd" d="M1823.595,260.86c-12.287-0.81-20.651-6.619-25.095-17.462
				c-5.199-12.69-4.969-25.329,4.466-36.102c8.037-9.175,18.765-8.607,28.507-3.927c13.701,6.581,27.479,13.539,39.757,22.375
				c10.506,7.561,11.025,18.305,2.89,25.711c-3.064,2.79-9.754,4.971-13.023,3.5c-8.548-3.844-15.696-1.772-23.389,1.389
				C1833.154,258.216,1828.31,259.378,1823.595,260.86z"/>
			<path fill-rule="evenodd" clip-rule="evenodd" d="M1596.364,284.619c-6.369-0.604-12.196-1.18-18.027-1.709
				c-21.613-1.961-32.493,8.559-30.906,30.111c0.509,6.922-0.269,13.029-6.486,17.436c-12.981,9.198-24.2,4.711-26.24-11.06
				c-2.124-16.421-0.251-32.65,6.726-47.665c2.434-5.237,7.4-10.473,12.542-13.052c14.823-7.436,30.673-8.29,46.444-2.658
				C1593.2,260.586,1598.127,269.191,1596.364,284.619z"/>
			<path fill-rule="evenodd" clip-rule="evenodd" d="M1855.06,529.229c-2.991-1.554-9.136-3.91-14.307-7.622
				c-8.487-6.092-17.448-8.965-27.952-8.841c-24.207,0.289-31.562-6.94-31.095-31.285c0.158-8.203,2.619-16.461,4.776-24.493
				c1.57-5.846,7.004-8.217,11.819-5.575c4.046,2.219,7.812,6.879,9.338,11.278c1.994,5.749-0.609,14.755,2.844,17.952
				c5.471,5.064,14.102,7.576,21.808,9.141c9.095,1.846,18.619,1.821,27.975,2.095c14.826,0.435,23.944,6.266,23.704,15.7
				C1883.688,518.652,1870.969,529.484,1855.06,529.229z"/>
			<path fill-rule="evenodd" clip-rule="evenodd" d="M221.538,440.098c1.261-5.295,2.384-12.741,4.891-19.69
				c2.059-5.709,6.872-9.059,13.446-7.301c6.435,1.721,8.597,6.384,8.388,12.853c-0.542,16.731,2.858,21.479,19.509,24.34
				c14.092,2.422,28.501,2.979,42.626,5.254c15.152,2.441,18.892,14.038,8.91,25.835c-8.593,10.154-21.843,13.108-32.762,4.965
				c-12.816-9.559-26.37-13.095-42.04-12.527c-11.677,0.423-17.757-5.225-20.529-16.674
				C222.806,452.321,222.528,447.272,221.538,440.098z"/>
			<path fill-rule="evenodd" clip-rule="evenodd" d="M306.995-21.521c-8.592-4.535-17.217-9.008-25.762-13.628
				c-4.665-2.522-8.927-6.416-13.871-7.595c-3.872-0.922-9.328,0.306-12.469,2.695c-1.596,1.213-0.611,7.564,0.914,10.782
				c3.587,7.563,9.385,14.245,11.971,22.052c1.642,4.956,0.889,12.653-2.122,16.542c-2.134,2.756-10.592,3-14.897,1.195
				c-8.811-3.693-14.827-10.782-12.843-21.504c1.551-8.378-2.428-12.644-9.551-15.928c-13.494-6.221-15.49-21.001-3.725-30.105
				c24.92-19.283,74.564-12.01,83.463,22.81c0.811,3.173,1.169,6.461,1.737,9.696C308.893-23.515,307.944-22.518,306.995-21.521z"/>
			<path fill-rule="evenodd" clip-rule="evenodd" d="M1812.584-28.084c20.185,1.089,32.764,4.165,43.988,13.035
				c8.603,6.797,10.295,16.267,12.164,25.457c1.331,6.548-4.621,6.846-8.851,4.573c-7.962-4.279-15.285-9.744-23.229-14.061
				c-4.792-2.604-10.158-5.201-15.438-5.616c-7.914-0.622-10.799,4.26-7.478,11.568c2.178,4.794,5.456,9.083,8.173,13.638
				c2.558,4.289,6.309,8.393,7.171,13.018c0.865,4.644,0.225,10.888-2.427,14.434c-1.978,2.644-8.4,3.366-12.504,2.735
				c-9.746-1.495-17.031-10.56-17.687-21.373c-0.513-8.462-1.402-14.881-11.373-18.712c-11.312-4.346-12.564-20.387-1.9-26.825
				C1793.791-22.607,1806.392-25.688,1812.584-28.084z"/>
			<path fill-rule="evenodd" clip-rule="evenodd" d="M782.525,757.454c-9.819-0.426-19.257-3.918-26.733-11.918
				c-5.784-6.189-6.922-16.92-1.669-23.307c1.188-1.444,6.578-1.667,7.904-0.333c3.684,3.703,6.305,8.481,9.235,12.91
				c3.173,4.797,7.051,5.496,12.006,2.715c11.528-6.472,17.911-15.683,18.306-29.412c0.572-19.936,10.01-31.181,29.094-36.426
				c9.422-2.59,20.832,0.591,23.561,6.567c2.576,5.642-1.968,21.245-9.314,23.883c-17.379,6.242-21.926,22.227-29.736,35.651
				C807.908,750.285,797.988,757.278,782.525,757.454z"/>
			<path fill-rule="evenodd" clip-rule="evenodd" d="M1320.339,775.164c-6.775,1.761-16.058,4.476-25.485,6.519
				c-6.898,1.495-15.599,4.312-18.774-4.695c-3.001-8.508,2.989-14.675,10.099-19.095c24.301-15.105,41.832-14.249,64.767,3.061
				c3.739,2.822,7.575,5.533,11.492,8.105c14.501,9.523,16.308,25.495,4.156,38.024c-4.133,4.26-8.154,8.721-12.818,12.321
				c-1.749,1.348-5.792,1.589-7.747,0.486c-9.611-5.42-9.425-14.267-7.755-23.798
				C1340.738,782.016,1335.593,775.259,1320.339,775.164z"/>
			<path fill-rule="evenodd" clip-rule="evenodd" d="M236.219,502.623c0.016,11.295-4.153,15.326-15.483,14.452
				c-4.018-0.31-8.103-1.027-11.933-2.256c-11.358-3.647-22.409-4.721-33.688,0.679c-6.083,2.913-12.411,2.672-16.537-3.876
				c-4.316-6.852-1.788-12.158,3.802-17.239c1.683-1.53,1.725-5.264,1.86-8.021c0.376-7.694-0.695-15.636,0.858-23.05
				c1.879-8.974,9.136-13.114,18.2-13.182c9.34-0.07,12.754,6.497,14.887,14.204c0.083,0.3,0.192,0.61,0.192,0.916
				c-0.027,12.951,6.09,18.238,19.321,19.93C233.452,487.194,236.205,491.53,236.219,502.623z"/>
			<path fill-rule="evenodd" clip-rule="evenodd" d="M1795.263,541.379c-0.105,11.413-4.284,15.326-15.595,14.122
				c-4.323-0.46-8.668-1.309-12.83-2.558c-10.75-3.226-21.11-4.099-31.844,0.835c-6.074,2.792-13.066,3.269-17.396-3.926
				c-4.229-7.025-1.297-12.226,4.318-17.118c1.479-1.289,1.476-4.676,1.537-7.116c0.186-7.437-0.898-15.043,0.315-22.281
				c1.581-9.418,8.796-14.29,18.064-14.566c9.972-0.297,13.59,6.008,15.457,14.326c0.137,0.609,0.44,1.21,0.441,1.816
				c0.021,12.453,6.293,17.009,18.634,18.448C1792.012,525.185,1795.369,529.863,1795.263,541.379z"/>
			<path fill-rule="evenodd" clip-rule="evenodd" d="M1509.902,553.75c0.125,11.336-3.911,15.311-15.311,14.531
				c-4.015-0.273-8.072-1.042-11.937-2.177c-11.319-3.322-22.28-4.812-33.659,0.617c-6.11,2.915-12.965,2.966-17.152-4.397
				c-3.86-6.791-0.997-11.677,4.101-16.434c1.533-1.431,2.002-4.545,2.062-6.91c0.188-7.44-1.046-15.054,0.121-22.301
				c1.6-9.921,9.019-14.959,18.622-15.002c10.018-0.045,14.37,6.461,14.918,14.757c0.89,13.475,7.223,18.475,20.479,20.124
				C1506.322,538.321,1509.788,543.443,1509.902,553.75z"/>
			<path fill-rule="evenodd" clip-rule="evenodd" d="M1264.928,866.172c-4.607-12.733-8.511-22.229-11.369-32.03
				c-1.239-4.25-1.553-9.553-0.137-13.632c3.029-8.731,7.459-16.978,11.304-25.398c16.423,7.363,18.54,12.164,13.539,27.978
				c-1.308,4.137-3.048,8.508-2.834,12.682c0.534,10.396,12.629,15.281,24.254,9.914c7.09-3.273,13.661-7.719,20.849-10.722
				c12.67-5.294,27.117,1.48,31.804,14.297c4.16,11.38-2.372,20.816-14.045,18.16c-16.422-3.737-32.312-0.768-48.49,0.197
				C1280.377,868.18,1270.821,866.566,1264.928,866.172z"/>
			<path fill-rule="evenodd" clip-rule="evenodd" d="M781.416,784.263c7.236,1.491,19.27,3.542,31.032,6.625
				c4.283,1.123,8.552,4.081,11.727,7.29c7.63,7.713,7.496,19.053,0.418,25.081c-8.207,6.991-19.821,6.227-27.064-1.525
				c-2.904-3.108-5.861-7.068-9.579-8.332c-8.768-2.981-17.295,2.521-18.564,11.908c-1.153,8.521-3.971,16.352-12.742,17.342
				c-5.131,0.579-12.162-2.793-16.02-6.685c-6.473-6.531-6.297-15.293-2.128-23.593
				C746.217,797.005,764.356,783.554,781.416,784.263z"/>
			<path fill-rule="evenodd" clip-rule="evenodd" d="M560.948,318.549c-11.538-1.406-16.182-8.637-19.272-16.559
				c-2.659-6.817-1.763-14.422,5.175-18.269c8.104-4.494,17.228-7.102,25.681-11.021c9.766-4.527,19.612-9.043,28.81-14.584
				c8.535-5.142,15.838-12.396,24.532-17.173c3.924-2.157,9.91-0.561,14.959-0.668c0.089,4.461,1.194,9.193,0.09,13.336
				c-4.647,17.44-14.857,28.518-34.405,28.44c-9.108-0.036-15.854,4.675-21.089,12.114c-4.314,6.13-8.917,12.154-14.106,17.535
				C568.247,314.887,563.784,316.737,560.948,318.549z"/>
			<path fill-rule="evenodd" clip-rule="evenodd" d="M1024.771,115.91c-0.058-25.227,11.961-36.674,37.266-37.529
				c10.734-0.362,21.377-3.561,32.055-5.514c1.525-0.279,3.041-1.248,4.502-1.135c5.284,0.41,12.322-4.435,15.043,4.266
				c2.623,8.39-1.862,18.59-9.967,20.334c-10.299,2.216-20.934,2.966-31.454,4.031c-14.74,1.491-19.764,6.631-20.29,21.399
				c-0.3,8.414-0.317,16.848-0.945,25.238c-0.526,7.037-3.961,8.326-10.063,4.566
				C1027.408,143.245,1024.853,130.191,1024.771,115.91z"/>
			<path fill-rule="evenodd" clip-rule="evenodd" d="M1197.441,246.77c-7.779,5.187-14.574,10.673-22.193,14.539
				c-8.036,4.076-15.153-1.189-14.937-10.187c0.074-3.099,0.482-6.279,1.331-9.254c2.846-9.983-0.838-16.733-9.423-21.973
				c-9.19-5.609-10.753-13.685-3.438-20.753c11.826-11.425,26.226-17.092,42.779-13.526c15.164,3.265,19.537,17.184,9.819,29.396
				c-1.16,1.457-2.554,2.739-3.921,4.015C1184.329,231.276,1184.325,231.271,1197.441,246.77z"/>
			<path fill-rule="evenodd" clip-rule="evenodd" d="M1486.558,269.077c-8.39,5.405-15.672,11.093-23.802,15.035
				c-7.07,3.427-13.679-1.862-13.788-9.913c-0.033-2.456,0.478-4.969,1.07-7.375c2.681-10.877,0.636-19.331-10.142-25.231
				c-8.066-4.416-8.693-12.673-2.803-19.778c9.518-11.481,32.677-17.954,46.385-12.938c7.951,2.91,12.311,8.307,11.357,17.082
				c-0.195,1.804-0.88,4.917-1.763,5.075c-10.362,1.867-7.669,14.07-14.874,18.709c-1.498,0.965-0.427,7.257,0.764,10.634
				C1479.901,263.035,1482.846,264.983,1486.558,269.077z"/>
			<path fill-rule="evenodd" clip-rule="evenodd" d="M1162.701,1042.227c-8.506,5.509-15.625,11.036-23.537,14.971
				c-7.192,3.576-13.695-1.324-14.074-9.435c-0.072-1.551-0.13-3.212,0.318-4.663c4.021-13.01,1.508-22.888-11.592-29.716
				c-6.556-3.417-6.561-12.872-0.274-18.691c12.589-11.657,27.432-17.32,44.737-12.943c8.994,2.275,13.417,8.878,12.473,17.237
				c-0.174,1.532-0.382,4.195-1.062,4.363c-7.96,1.973-7.72,10.153-11.783,14.969c-7.931,9.4-8.069,10.396,0.396,19.191
				C1159.154,1038.395,1159.979,1039.305,1162.701,1042.227z"/>
			<path fill-rule="evenodd" clip-rule="evenodd" d="M1131.327,277.071c13.456,22.517,7.425,49.14-13.828,59.896
				c-13.524,6.845-28.337,11.555-43.048,15.409c-4.838,1.267-12.974-1.664-16.149-5.518c-1.973-2.394,0.875-12.156,4.449-15.091
				c10.963-9.003,22.836-17.2,35.303-23.962c8.509-4.616,15.851-8.969,20.512-18.022
				C1121.121,284.818,1126.771,281.449,1131.327,277.071z"/>
			<path fill-rule="evenodd" clip-rule="evenodd" d="M1567.678,671.972c13.254,21.344,7.581,48.533-12.904,59.048
				c-13.986,7.18-29.415,11.892-44.641,16.108c-4.608,1.276-13.167-1.271-15.377-4.861c-2.005-3.258,0.437-12.375,3.937-15.316
				c10.823-9.099,22.547-17.486,34.974-24.203c9.058-4.896,16.984-9.362,21.66-19.25
				C1557.527,678.843,1563.312,675.883,1567.678,671.972z"/>
			<path fill-rule="evenodd" clip-rule="evenodd" d="M701.573,9.297c1.012-2.041,2.465-6.198,4.944-9.609
				c2.344-3.227,5.388-6.292,8.78-8.348c13.663-8.282,21.328-19.982,24.26-35.827c2.097-11.322,8.204-15.219,15.628-12.952
				c9.811,2.995,16.655,13.302,14.053,22.382c-1.435,5.005-4.053,9.791-6.781,14.284C754.696-7.985,746.605,4.6,738.641,17.264
				c-1.163,1.85-2.198,3.8-3.529,5.521c-4.583,5.923-8.841,12.813-17.988,10.725C710.188,31.926,701.879,19.672,701.573,9.297z"/>
			<path fill-rule="evenodd" clip-rule="evenodd" d="M369.798,76.736c-12.625-0.905-17.701-8.127-12.125-18.94
				c4.447-8.622,2.999-15.294-3.453-21.984c-9.119-9.455-18.162-19.018-26.598-29.072c-2.536-3.022-5.177-9.199-3.777-11.489
				c1.896-3.102,7.512-4.881,11.758-5.409c11.017-1.371,19.946,3.264,24.911,13.094c8,15.84,18.305,29.407,31.703,41.271
				c11.71,10.371,8.5,22.6-6.203,28.385C380.862,74.619,375.217,75.391,369.798,76.736z"/>
			<path fill-rule="evenodd" clip-rule="evenodd" d="M615.711,919.799c13.648,5.634,15.104,8.746,10.702,20.822
				c-0.856,2.35-1.842,4.658-2.61,7.035c-2.257,6.991-4.47,14.062,2.661,19.743c6.531,5.204,15.748,4.859,23.688-0.219
				c5.468-3.498,10.987-7.393,17.05-9.319c4.21-1.337,11.034-1.323,13.65,1.216c2.41,2.34,2.608,10.073,0.502,13.273
				c-3.932,5.974-9.457,11.908-15.722,15.132c-13.66,7.029-28.645,8.539-43.876,5.395c-8.599-1.775-15.33-6.409-17.829-14.897
				C597.603,956.499,604.139,937.625,615.711,919.799z"/>
			<path fill-rule="evenodd" clip-rule="evenodd" d="M975.493,437.445c2.099-8.032,3.238-14.078,5.273-19.807
				c3.407-9.594,1.363-16.612-7.308-22.546c-10.784-7.378-11.096-13.908,0.12-20.281c9.808-5.574,20.898-9.763,31.944-12.04
				c11.137-2.296,19.807,6.215,18.81,17.642c-0.685,7.843-2.094,17.283-6.888,22.768c-10.369,11.863-23.091,21.679-34.957,32.209
				C981.478,436.287,979.657,436.271,975.493,437.445z"/>
			<path fill-rule="evenodd" clip-rule="evenodd" d="M515.049,123.534c-21.023,0.911-37.607-5.677-51.549-18.958
				c-16.631-15.841-22.713-16.52-42.817-5.268c-5.577,3.121-11.937,5.096-18.171,6.668c-2.562,0.646-7.719-0.494-8.23-1.999
				c-1.072-3.154-1.016-7.842,0.711-10.526c2.586-4.017,6.495-7.873,10.741-10.012c20.017-10.086,40.506-11.668,61.285-1.8
				c8.174,3.882,16.714,7.01,24.8,11.056C504.046,98.815,512.782,107.866,515.049,123.534z"/>
			<path fill-rule="evenodd" clip-rule="evenodd" d="M529.499,904.436c-1.453-0.17-4.944-0.221-8.249-1.03
				c-8.811-2.159-15.73-2.186-20.06,8.318c-2.836,6.883-10.525,9.393-17.621,6.35c-6.127-2.628-11.941-6.643-16.901-11.14
				c-4.346-3.941-4.914-9.483,0.228-13.876c5.319-4.545,7.994-0.759,10.988,3.486c4.105,5.82,9.431,4.316,11.957-0.827
				c4.337-8.827,11.783-11.441,20.263-13.009c12.399-2.293,23.064-6.496,29.082-19.188c1.369-2.886,8.457-4.904,12.458-4.302
				c7.777,1.17,11.059,7.554,11.023,15.212C562.583,892.234,549.426,904.818,529.499,904.436z"/>
			<path fill-rule="evenodd" clip-rule="evenodd" d="M345.23,850.869c14.333-0.57,27.352-0.38,38.574,8.396
				c4.03,3.152,6.364,5.764,3.103,11.61c-4.264,7.645-0.96,13.715,8.469,18.733c6.862,3.652,14.386,6.401,20.496,11.029
				c5.082,3.849,8.535,9.847,12.709,14.893c-0.502,1.146-1.005,2.29-1.508,3.436c-7.179,0.926-14.591,3.468-21.491,2.47
				c-19.238-2.78-34.367-13.396-44.485-29.735c-2.635-4.256-1.158-11.579-0.335-17.315c0.886-6.176,0.857-9.966-6.867-11.132
				C348.379,862.422,343.414,858.993,345.23,850.869z"/>
			<path fill-rule="evenodd" clip-rule="evenodd" d="M1197.458,591.062c-3.967-13.84,1.355-24.119,13.952-25.569
				c15.976-1.838,32.552-3.819,44.377,12.02c1.815,2.432,7.312,3.176,10.999,2.95c11.167-0.685,15.078,1.472,18.679,12.02
				c3.371,9.875,0.618,20.95-6.82,27.431c-7.593,6.616-18.629,4.079-20.763-5.514c-2.142-9.628-3.559-18.926-13.601-24.075
				c-11.049-5.666-22.332-4.321-33.749-2.173C1206.328,588.944,1202.175,590.004,1197.458,591.062z"/>
			<path fill-rule="evenodd" clip-rule="evenodd" d="M1135.553,118.807c0.315,15.034-3.721,23.956-14.955,30.009
				c-5.979,3.222-10.501,9.375-15.242,14.603c-4.168,4.593-6.955,10.841-11.828,14.247c-3.143,2.198-9.898,2.185-13.263,0.184
				c-2.742-1.632-3.595-7.633-3.876-11.792c-0.188-2.776,1.804-5.888,3.329-8.56c7.539-13.209,14.627-26.742,23.124-39.317
				c5.272-7.802,12.471-14.417,19.377-20.96c4.562-4.321,8.697-2.971,10.051,3.467
				C1133.744,107.708,1134.839,114.81,1135.553,118.807z"/>
			<path fill-rule="evenodd" clip-rule="evenodd" d="M843.483,261.191c-2.188,0-4.406,0.232-6.559-0.041
				c-9.96-1.261-11.941-4.779-7.712-13.698c1.874-3.952,4.906-7.593,5.778-11.721c1.097-5.194,0.639-10.742,0.586-16.134
				c-0.015-1.468-1.256-2.888-1.47-4.397c-1.113-7.842,7.245-16.665,19.768-21.018c12.815-4.456,23.331-2.948,27.185,4.579
				c0.938,1.828-0.154,5.63-1.626,7.48c-1.335,1.678-4.459,1.934-6.794,2.815c-13.26,5.001-14.594,12.181-3.972,21.373
				c6.588,5.699,5.566,18.365-3.31,24.217c-6.231,4.108-14.073,5.772-21.196,8.527C843.934,262.512,843.709,261.853,843.483,261.191
				z"/>
			<path fill-rule="evenodd" clip-rule="evenodd" d="M1370.522,225.776c9.21-2.302,18.476-4.409,27.611-6.975
				c6.583-1.848,11.151,0.351,13.572,6.317c4.002,9.859-5.429,24.306-16.009,24.869c-2.474,0.132-5.079,0.122-7.448-0.498
				c-9.166-2.396-16.137,0.102-22.362,7.476c-6.748,7.993-15.611,8.293-25.164,2.252c-8.776-5.55-12.838-14.449-7.958-23.078
				c2.763-4.885,9.329-8.812,14.989-10.562c6.978-2.158,14.795-1.602,22.25-2.217
				C1370.176,224.166,1370.35,224.971,1370.522,225.776z"/>
			<path fill-rule="evenodd" clip-rule="evenodd" d="M642.251,819.812c-0.078,15.479-17.762,27.009-32.043,21.819
				c-10.376-3.771-21.386-5.81-32.132-8.548c-5.724-1.458-11.801-2.026-17.161-4.307c-7.977-3.396-9.506-11.9-4.173-18.705
				c7.153-9.127,20.371-10.222,28.823-2.385c12.399,11.498,12.261,11.21,27.527,3.854c5.825-2.806,12.349-4.43,18.728-5.748
				C638.648,804.381,642.303,809.637,642.251,819.812z"/>
			<path fill-rule="evenodd" clip-rule="evenodd" d="M389.243,312.192c24.685,1.661,51.195,28.3,49.632,52
				c-0.327,4.961-4.252,12.162-8.33,13.786c-5.342,2.126-12.506-0.07-18.819-0.918c-0.887-0.119-1.727-3.083-1.994-4.822
				c-0.616-4.008-0.782-8.083-1.279-12.112c-1.492-12.099-7.685-18.685-19.705-21.433c-6.06-1.385-12.248-2.585-18.002-4.832
				c-6.734-2.63-7.875-7.863-2.032-11.961C374.821,317.617,382.341,315.345,389.243,312.192z"/>
			<path fill-rule="evenodd" clip-rule="evenodd" d="M524.422,381.856c-3.278,4.657-5.661,11.782-9.873,13.111
				c-5.681,1.794-15.61,1.569-18.742-2.071c-11.105-12.906-21.02-27.1-29.541-41.869c-5.112-8.859,0.574-20.938,8.58-23.888
				c8.523-3.139,17.18,1.093,21.347,11.586c4.753,11.971,8.803,23.868,21.621,30.36C520.81,370.603,521.69,376.297,524.422,381.856z
				"/>
			<path fill-rule="evenodd" clip-rule="evenodd" d="M1432.761,416.267c-2.979-11.6-0.164-17.503,9.691-21.774
				c16.142-6.993,34.338-3.002,46.928,9.421c2.415,2.383,7.253,3.552,10.829,3.292c12.302-0.897,17.676,2.76,20.241,14.939
				c2.058,9.771-0.715,18.074-7.892,24.69c-6.7,6.177-16.649,3.961-18.674-4.547c-2.476-10.4-3.361-21.058-14.674-26.618
				c-12.422-6.104-24.963-4.198-37.626-1.539C1438.855,414.704,1436.159,415.439,1432.761,416.267z"/>
			<path fill-rule="evenodd" clip-rule="evenodd" d="M873.744,1047.215c1.468,0.071,2.172-0.105,2.613,0.159
				c16.919,10.154,21.933,8.519,30.515-9.504c4.302-9.034,8.853-17.963,13.672-26.73c1.614-2.934,3.938-6.261,6.781-7.549
				c4.233-1.918,9.214-2.187,13.877-3.156c0.761,3.765,2.413,7.604,2.108,11.282c-0.798,9.646-2.173,19.271-3.824,28.816
				c-2.994,17.316-12.84,27.762-27.136,29.392C894.573,1071.951,881.599,1064.505,873.744,1047.215z"/>
			<path fill-rule="evenodd" clip-rule="evenodd" d="M1366.209,172.402c5.013,0.804,10.535,2.202,16.103,2.416
				c4.26,0.164,8.56-1.539,12.872-1.732c3.924-0.176,9.022-0.813,11.542,1.258c2.98,2.45,5.781,8.018,5.05,11.469
				c-1.458,6.876-5.04,13.411-8.395,19.742c-2.852,5.383-8.217,5.688-11.75,1.614c-14.271-16.454-28.646-12.603-43.501-1.313
				c-0.983,0.747-2.144,1.548-3.309,1.715c-4.18,0.598-9.586,2.68-12.257,0.864c-2.508-1.708-3.154-7.717-2.847-11.697
				c0.843-10.914,8.452-19.195,19.162-21.606C1354.35,173.899,1359.977,173.358,1366.209,172.402z"/>
			<path fill-rule="evenodd" clip-rule="evenodd" d="M1632.227,541.443c2.805,0.221,6.192-0.48,8.296,0.85
				c4.642,2.938,10.474,6.097,12.453,10.635c2.797,6.407-2.492,10.917-8.431,13.534c-13.729,6.049-27.402,12.238-41.273,17.948
				c-3.653,1.504-7.935,1.982-11.939,2.036c-9.473,0.125-13.314-5.075-9.96-14.024c4.565-12.179,12.163-22.109,25.124-26.106
				c8.3-2.56,16.987-3.859,25.501-5.723C1632.073,540.876,1632.15,541.16,1632.227,541.443z"/>
			<path fill-rule="evenodd" clip-rule="evenodd" d="M71.658,502.241c5.879,1.285,11.374,1.603,16.066,3.708
				c8.264,3.707,9.277,15.631,1.252,19.619c-15.894,7.898-32.407,14.569-48.804,21.413c-2.735,1.142-6.188,0.899-9.287,0.77
				c-8.263-0.346-11.513-4.326-9.112-12.29c3.781-12.539,11.342-22.538,23.936-27.051C54.141,505.389,63.221,504.18,71.658,502.241z
				"/>
			<path fill-rule="evenodd" clip-rule="evenodd" d="M415.922,308.588c-6.562-4.054-13.551-5.987-15.026-9.965
				c-1.423-3.837,1.576-10.914,4.85-14.594c9.942-11.175,21.275-21.1,31.455-32.079c8.483-9.149,18.74-8.758,29.358-6.873
				c2.2,0.391,4.834,3.113,5.583,5.33c0.559,1.655-1.073,5.591-2.619,6.181c-17.005,6.493-22.744,23.301-33.54,35.477
				C430.484,298.268,423.092,302.792,415.922,308.588z"/>
			<path fill-rule="evenodd" clip-rule="evenodd" d="M1696.457,943.961c-6.538-0.483-13.158-0.483-19.594-1.57
				c-8.192-1.384-11.749-8.891-8.314-16.199c6.798-14.465,33.073-25.089,47.631-19.258c10.052,4.026,16.131,13.014,14.559,21.524
				c-1.527,8.271-10.711,14.922-21.138,15.195c-4.371,0.115-8.749,0.019-13.123,0.019
				C1696.47,943.768,1696.464,943.864,1696.457,943.961z"/>
			<path fill-rule="evenodd" clip-rule="evenodd" d="M893.935,688.772c-0.627,3.597-0.021,8.497-2.148,10.509
				c-3.936,3.726-9.47,5.763-14.339,8.503c-1.818-4.245-5.272-8.546-5.128-12.723c0.343-9.911,2.449-19.754,3.711-29.642
				c0.31-2.427,0.562-5.013,0.071-7.364c-1.989-9.521,1.323-14.899,10.9-16.996c1.517-0.333,3.102-0.667,4.631-0.583
				c9.653,0.535,20.902-0.009,25.676,9.784c4.877,10.002-4.637,16.356-10.597,22.784c-4.64,5.005-10.037,9.309-15.097,13.924
				C892.388,687.57,893.162,688.171,893.935,688.772z"/>
			<path fill-rule="evenodd" clip-rule="evenodd" d="M742.235,145.4c0.087,14.154-5.311,20.009-17.857,20.686
				c-9.047,0.487-17.769,0.576-25.208,7.729c-3.367,3.236-11.711,6.358-13.99,4.6c-4.572-3.53-8.75-10.408-8.853-15.981
				c-0.079-4.35,5.403-10.362,9.94-12.845c5.799-3.171,13.332-2.99,19.724-5.332c3.397-1.244,7.3-4.208,8.608-7.374
				c2.389-5.785,3.983-11.241,11.757-10.694c8,0.563,12.237,5.603,14.65,12.538C741.913,141.333,742.029,144.212,742.235,145.4z"/>
			<path fill-rule="evenodd" clip-rule="evenodd" d="M396.352,608.345c-0.996,4.56-1.168,7.083-2.099,9.288
				c-3.081,7.305-1.151,13.191,2.506,20.146c3.897,7.411,5.359,16.351,6.636,24.812c0.943,6.246-3.281,9.886-9.652,9.924
				c-6.152,0.037-9.635-2.765-10.258-9.479c-0.973-10.484-3.847-12.314-14.541-11.711c-3.932,0.222-8.271,0.32-11.815-1.075
				c-8.759-3.447-10.922-10.847-4.864-17.907C363.367,619.404,378.139,612.695,396.352,608.345z"/>
			<path fill-rule="evenodd" clip-rule="evenodd" d="M1017.283,570.441c2.767,15.683-1.49,21.735-16.129,23.835
				c-3.703,0.531-7.404,1.238-11.129,1.441c-11.342,0.618-19.579,4.944-22.883,16.789c-2.343,8.398-8.401,12.701-17.042,10.087
				c-3.239-0.979-5.524-5.109-8.245-7.803c2.179-2.154,4.396-4.271,6.527-6.472c2.291-2.366,5.171-4.464,6.62-7.282
				c4.126-8.023,7.904-16.25,11.34-24.595c2.737-6.648,7.185-9.966,14.368-9.333C992.711,568.164,1004.705,569.291,1017.283,570.441
				z"/>
			<path fill-rule="evenodd" clip-rule="evenodd" d="M552.595,171.157c-18.539,0.031-22.532-5.647-13.841-18.308
				c6.103-8.89,14.862-16.489,23.779-22.748c7.52-5.279,17.206-1.03,24.203,8.058c5.723,7.435,6.306,17.994,1.219,24.424
				c-0.914,1.155-2.208,2.512-3.521,2.768C572.81,167.601,561.143,169.624,552.595,171.157z"/>
			<path fill-rule="evenodd" clip-rule="evenodd" d="M1192.382,445.744c16.279,2.512,24.528,12.596,20.169,25.713
				c-0.921,2.771-6.163,6.668-8.186,6.047c-6.936-2.132-14.851-4.613-19.543-9.627c-6.085-6.502-11.901-8.043-19.869-6.377
				c-5.418,1.134-12.859,3.214-14.187-4.04c-0.841-4.601,2.676-11.086,6.142-15.071c3.241-3.728,8.756-5.98,13.687-7.636
				C1182.928,430.61,1188.381,433.625,1192.382,445.744z"/>
			<path fill-rule="evenodd" clip-rule="evenodd" d="M510.367,836.853c8.829-0.192,10.829,5.477,11.749,10.978
				c1.161,6.942-0.775,13.585-8.329,15.79c-6.808,1.988-14.339,1.682-20.978,4.02c-5.47,1.927-11.618,5.201-14.735,9.75
				c-4.417,6.445-9.608,7.189-16.032,6.542c-5.211-0.524-6.816-3.692-5.582-8.531c0.306-1.2,0.793-2.362,1.284-3.503
				C464.098,857.147,495.664,836.661,510.367,836.853z"/>
			<path fill-rule="evenodd" clip-rule="evenodd" d="M676.007,311.292c-0.46,2.123-1.132,6.449-2.357,10.611
				c-2.427,8.247-7.923,12.186-16.331,9.076c-12.781-4.729-25.495-4.47-38.633-1.975c-2.931,0.556-6.497-2.231-9.771-3.479
				c2.727-2.247,5.329-6.232,8.203-6.439c12.44-0.899,21.687-6.301,29.247-16.076c2.661-3.44,7.225-6.017,11.443-7.528
				C670.017,291.11,676.52,296.203,676.007,311.292z"/>
			<path fill-rule="evenodd" clip-rule="evenodd" d="M460.361-8.502c-0.452,3.494-0.249,6.348-1.224,8.715
				c-4.482,10.871-9.003,21.746-14.098,32.335c-2.963,6.158-5.06,14.526-14.646,12.877c-6.691-1.151-12.423-14.208-10.737-22.763
				C422.803,6.693,439.852-6.908,460.361-8.502z"/>
			<path fill-rule="evenodd" clip-rule="evenodd" d="M259.862,404.013c6.398-5.029,10.418-10.251,15.569-11.868
				c18.423-5.781,38.751,12.718,36.076,31.916c-0.962,6.9-4.71,10.003-11.543,9.159c-8.89-1.1-15.8-5.878-17.925-14.374
				c-1.81-7.233-5.041-10.645-12.241-11.171C267.524,407.509,265.341,406.093,259.862,404.013z"/>
			<path fill-rule="evenodd" clip-rule="evenodd" d="M1871.002,454.782c0.315,14.662-6.096,20.136-15.394,15.723
				c-5.875-2.787-11.896-8.346-14.476-14.16c-2.812-6.345-5.688-9.339-12.396-10.048c-7.438-0.787-8.415-3.886-3.764-9.605
				c7.687-9.452,26.007-9.531,35.905,1.115C1866.104,443.425,1868.964,451.241,1871.002,454.782z"/>
			<path fill-rule="evenodd" clip-rule="evenodd" d="M813.595,844.58c-6.296,5.775-12.204,12.089-19.088,17.05
				c-2.576,1.857-9.554,2.121-10.807,0.401c-2.995-4.113-5.105-9.886-4.912-14.886c0.099-2.564,5.781-6.742,9.167-6.981
				c8.066-0.569,16.268,0.77,24.415,1.338C812.778,842.529,813.187,843.555,813.595,844.58z"/>
		</g>
	</g>
</g>
<g id="Layer_3">
	<rect x="1717.696" y="410.805" fill="none" width="3" height="0"/>
</g>
</svg>
